<svg width="51" height="41" viewBox="0 0 51 41" fill="none" xmlns="http://www.w3.org/2000/svg">
<mask id="path-1-inside-1_12_148" fill="white">
<path d="M0.230968 0C1.18149 1.26816 1.71849 2.92977 2.8011 4.06444C4.51261 6.23893 6.94777 7.07501 9.14459 8.25535C10.8044 9.17924 12.5934 9.76941 14.147 10.9779C15.5197 12.0598 17.2025 11.287 18.7015 11.3994C22.0383 11.027 25.3781 12.1687 28.7178 11.6629C30.0215 11.5048 31.3052 11.157 32.5428 10.6371C32.7611 9.34084 33.2837 8.16752 34.1223 7.3174C34.0935 7.76003 34.0361 8.64528 34.0074 9.08791C34.2256 8.56448 34.2687 7.98134 34.3089 7.40522C36.4598 7.27173 37.5769 4.77405 39.1764 3.41104C41.3588 1.94967 44.0926 2.89113 45.9765 4.63353C46.8868 5.50122 47.5415 7.15932 47.0505 8.50476C46.7231 8.66636 46.3785 8.49423 46.0971 8.29048C46.3182 7.32794 46.143 6.21434 45.4739 5.58202C44.242 4.3806 42.6252 3.96257 41.0831 3.87474C39.9374 3.94149 39.1764 5.22019 38.6451 6.33027C39.4578 8.84552 40.3509 11.424 41.8556 13.4509C41.9016 10.4298 41.6805 7.41225 41.4909 4.40168C41.712 4.75649 41.9102 5.14291 41.9992 5.58202C42.4242 8.17806 42.2318 10.8935 42.9095 13.4334C42.9268 14.4346 43.3144 15.5201 44.2448 15.5903C45.5601 15.766 47.0533 16.047 48.2623 15.232C49.0893 14.5821 48.5351 13.4228 48.2795 12.5868C48.8395 12.3865 49.4081 12.2249 49.9853 12.1231C49.3392 10.5352 47.9407 9.90993 46.792 9.01765C46.9873 8.96847 47.3807 8.86659 47.5788 8.8139C48.6844 9.79752 50.1518 10.2507 50.9932 11.6242C51.0708 12.6535 50.4649 13.4615 50.0341 14.2624C49.4196 15.2847 48.7533 16.5002 47.6506 16.7355C46.5077 16.8796 45.3533 16.8409 44.2046 16.9217C43.5815 16.8444 42.8779 16.6266 42.3208 17.1079C41.5225 18.7836 41.4881 20.8175 40.8161 22.5634C40.46 23.677 39.8426 24.6255 39.4463 25.7145C39.5009 26.3188 39.8483 26.7825 40.1412 27.2426C41.4995 29.1466 43.4092 30.2567 44.9168 31.95C45.8185 32.9265 46.0827 34.402 46.4876 35.7228C46.726 36.5905 47.5559 36.7416 48.0986 37.2263C48.8452 37.7463 49.3392 39.1584 48.6787 40.0051C47.7425 41.3892 46.0138 41.1468 44.8422 40.3809C42.9698 39.1233 42.809 36.0039 40.9683 34.7076C39.3085 33.457 37.5137 32.4734 35.6557 31.7603C34.9866 33.3446 34.0935 34.8446 33.8494 36.6362C34.6707 37.3598 36.2674 37.5566 36.1726 39.1339C36.1353 39.7275 36.1784 40.6409 35.5437 40.7322C34.3348 41.1749 33.054 40.7744 31.8278 40.6233C30.9749 39.4149 30.257 37.9149 30.3432 36.2603C30.4178 34.0788 30.6389 31.9043 30.9519 29.7544C30.5356 29.4804 30.0531 29.4312 29.6023 29.2977C26.9517 28.6935 24.5079 27.2426 21.9981 26.0939C22.2336 28.711 21.2429 31.2087 21.4525 33.8118C21.6162 35.6209 23.4454 35.8774 24.0284 37.3739C24.6314 38.2627 23.925 39.7943 22.9975 39.6573C21.9436 39.6573 20.7432 39.861 19.8415 39.039C18.2305 37.2861 17.5786 34.6233 17.369 32.0764C17.2972 30.731 16.8579 29.4944 16.2519 28.3914C14.773 30.334 12.6049 31.1595 10.902 32.7509C10.2186 33.5624 10.0779 34.806 10.009 35.9125C9.92281 36.8224 10.5862 37.3844 10.9394 38.0659C11.1662 38.6983 10.9049 39.4641 10.5029 39.8927C9.64139 40.3634 8.65354 40.2685 7.74035 40.135C6.89895 40.0788 6.39929 38.9828 6.42513 38.0413C6.3677 36.7626 7.02531 35.6912 7.31247 34.5144C7.81214 32.9336 7.43308 31.1982 7.75471 29.5787C7.99593 28.4405 9.03259 28.0963 9.6098 27.2813C10.164 26.3855 10.2818 25.2333 10.4225 24.1583C10.6867 21.3339 10.6608 18.348 11.7808 15.773C8.19694 15.6149 4.46092 13.9954 2.0516 10.6266C1.09821 9.35489 0.635871 7.68274 0.268299 6.05275C-0.300289 4.08903 0.207995 2.01641 0.230968 0ZM2.06883 8.45207C4.13929 11.6032 7.18325 13.6933 10.4081 14.4627L10.5546 14.6102C11.6257 14.7929 12.7112 14.8315 13.7823 14.5786C13.1276 15.8187 12.0995 16.8409 11.8296 18.3374C11.2868 21.3058 11.8612 24.6044 10.5833 27.348C10.1411 28.4546 9.06418 28.8551 8.57313 29.8949C8.30032 31.7603 8.43242 33.7134 7.95572 35.5401C7.70015 36.6608 7.08848 37.8657 7.6944 38.9863C8.43816 39.0214 9.18192 39.0039 9.92568 38.9196C9.10439 36.7205 9.10439 33.9699 10.2846 31.9675C12.1081 30.046 14.6237 29.2239 16.0883 26.7684C16.318 26.6349 16.5477 26.5014 16.7775 26.3644C16.7229 28.0612 17.9031 29.2696 18.1329 30.8891C18.4976 33.053 18.5205 35.5507 19.8846 37.2158C20.7805 38.3751 22.1733 38.2908 23.3708 38.2802C22.8194 36.6573 20.9184 36.6327 20.5652 34.8586C19.8989 31.7813 21.3233 28.7954 21.2113 25.7145C21.0734 25.1876 20.8408 24.7098 20.6513 24.211C23.9738 26.1326 27.4887 27.6291 31.1271 28.3246C31.107 27.1021 31.0324 25.8867 30.9922 24.6677C31.5464 26.0096 31.8134 27.485 32.1207 28.9288C31.9599 30.2075 31.5205 31.4265 31.466 32.7333C31.3741 34.7006 30.728 36.9875 31.9053 38.6631C32.7008 39.984 34.1625 39.71 35.3312 39.6854C35.0038 38.0413 32.8731 38.0589 32.8645 36.2603C33.6484 33.7029 34.8459 31.272 35.1044 28.5073C35.2307 29.0483 35.3628 29.5893 35.4892 30.1338C37.663 31.4968 40.0896 32.2767 42.0854 34.0472C43.4235 35.1853 43.748 37.2966 44.8479 38.6772C45.5974 39.5624 46.7116 39.3411 47.6564 39.3025C47.4611 38.1502 46.5881 37.676 45.8903 37.0437C45.2212 35.9055 45.2126 34.3422 44.4171 33.2849C42.8808 31.149 40.7184 29.8879 39.1189 27.8363C38.3407 26.8597 38.022 25.5108 37.7434 24.2286C38.1885 24.4639 38.4412 24.889 38.4987 25.5108C39.4262 23.6419 40.2303 21.6817 40.6179 19.5318C37.6946 17.4346 35.0498 14.7437 32.9018 11.5294C28.5685 13.876 23.7785 12.5587 19.2327 12.4463C18.1874 12.4568 17.1307 12.4041 16.1026 12.6711C15.1262 12.91 14.5175 13.9498 13.768 14.6524C14.1671 14.0025 14.5806 13.3702 14.9597 12.7062C10.9164 11.1149 6.57446 10.0434 3.12273 6.8291C2.23538 6.0668 1.37389 5.18155 0.897192 3.95905C1.21882 5.47312 1.25041 7.17337 2.06883 8.45207ZM35.4346 8.54692C36.836 11.6172 39.6933 12.8502 41.8642 14.9158C41.8729 14.6524 41.8843 14.1325 41.8901 13.8725C41.0372 12.9064 39.8885 12.2144 39.4377 10.8127C38.9151 9.29166 38.3206 7.73544 38.289 6.05275C37.3672 6.93098 36.4052 7.753 35.4346 8.54692ZM42.3065 15.1723C42.1284 15.7379 42.2691 15.9627 42.7286 15.8468C42.9009 15.2777 42.7602 15.0528 42.3065 15.1723Z"/>
<path d="M44.3109 9.22842C44.5665 8.88766 44.7732 8.4626 45.1293 8.25885C45.5026 8.4907 45.8386 8.82794 46.2607 8.92279L46.2292 9.23895C45.7209 10.0645 44.8565 9.91695 44.3109 9.22842Z"/>
<path d="M32.5917 28.4195C32.7582 28.423 33.0971 28.4265 33.2665 28.43C33.2005 29.0343 33.1804 29.7298 32.6778 30.053C32.6376 29.5085 32.6118 28.964 32.5917 28.4195Z"/>
</mask>
<path d="M0.230968 0C1.18149 1.26816 1.71849 2.92977 2.8011 4.06444C4.51261 6.23893 6.94777 7.07501 9.14459 8.25535C10.8044 9.17924 12.5934 9.76941 14.147 10.9779C15.5197 12.0598 17.2025 11.287 18.7015 11.3994C22.0383 11.027 25.3781 12.1687 28.7178 11.6629C30.0215 11.5048 31.3052 11.157 32.5428 10.6371C32.7611 9.34084 33.2837 8.16752 34.1223 7.3174C34.0935 7.76003 34.0361 8.64528 34.0074 9.08791C34.2256 8.56448 34.2687 7.98134 34.3089 7.40522C36.4598 7.27173 37.5769 4.77405 39.1764 3.41104C41.3588 1.94967 44.0926 2.89113 45.9765 4.63353C46.8868 5.50122 47.5415 7.15932 47.0505 8.50476C46.7231 8.66636 46.3785 8.49423 46.0971 8.29048C46.3182 7.32794 46.143 6.21434 45.4739 5.58202C44.242 4.3806 42.6252 3.96257 41.0831 3.87474C39.9374 3.94149 39.1764 5.22019 38.6451 6.33027C39.4578 8.84552 40.3509 11.424 41.8556 13.4509C41.9016 10.4298 41.6805 7.41225 41.4909 4.40168C41.712 4.75649 41.9102 5.14291 41.9992 5.58202C42.4242 8.17806 42.2318 10.8935 42.9095 13.4334C42.9268 14.4346 43.3144 15.5201 44.2448 15.5903C45.5601 15.766 47.0533 16.047 48.2623 15.232C49.0893 14.5821 48.5351 13.4228 48.2795 12.5868C48.8395 12.3865 49.4081 12.2249 49.9853 12.1231C49.3392 10.5352 47.9407 9.90993 46.792 9.01765C46.9873 8.96847 47.3807 8.86659 47.5788 8.8139C48.6844 9.79752 50.1518 10.2507 50.9932 11.6242C51.0708 12.6535 50.4649 13.4615 50.0341 14.2624C49.4196 15.2847 48.7533 16.5002 47.6506 16.7355C46.5077 16.8796 45.3533 16.8409 44.2046 16.9217C43.5815 16.8444 42.8779 16.6266 42.3208 17.1079C41.5225 18.7836 41.4881 20.8175 40.8161 22.5634C40.46 23.677 39.8426 24.6255 39.4463 25.7145C39.5009 26.3188 39.8483 26.7825 40.1412 27.2426C41.4995 29.1466 43.4092 30.2567 44.9168 31.95C45.8185 32.9265 46.0827 34.402 46.4876 35.7228C46.726 36.5905 47.5559 36.7416 48.0986 37.2263C48.8452 37.7463 49.3392 39.1584 48.6787 40.0051C47.7425 41.3892 46.0138 41.1468 44.8422 40.3809C42.9698 39.1233 42.809 36.0039 40.9683 34.7076C39.3085 33.457 37.5137 32.4734 35.6557 31.7603C34.9866 33.3446 34.0935 34.8446 33.8494 36.6362C34.6707 37.3598 36.2674 37.5566 36.1726 39.1339C36.1353 39.7275 36.1784 40.6409 35.5437 40.7322C34.3348 41.1749 33.054 40.7744 31.8278 40.6233C30.9749 39.4149 30.257 37.9149 30.3432 36.2603C30.4178 34.0788 30.6389 31.9043 30.9519 29.7544C30.5356 29.4804 30.0531 29.4312 29.6023 29.2977C26.9517 28.6935 24.5079 27.2426 21.9981 26.0939C22.2336 28.711 21.2429 31.2087 21.4525 33.8118C21.6162 35.6209 23.4454 35.8774 24.0284 37.3739C24.6314 38.2627 23.925 39.7943 22.9975 39.6573C21.9436 39.6573 20.7432 39.861 19.8415 39.039C18.2305 37.2861 17.5786 34.6233 17.369 32.0764C17.2972 30.731 16.8579 29.4944 16.2519 28.3914C14.773 30.334 12.6049 31.1595 10.902 32.7509C10.2186 33.5624 10.0779 34.806 10.009 35.9125C9.92281 36.8224 10.5862 37.3844 10.9394 38.0659C11.1662 38.6983 10.9049 39.4641 10.5029 39.8927C9.64139 40.3634 8.65354 40.2685 7.74035 40.135C6.89895 40.0788 6.39929 38.9828 6.42513 38.0413C6.3677 36.7626 7.02531 35.6912 7.31247 34.5144C7.81214 32.9336 7.43308 31.1982 7.75471 29.5787C7.99593 28.4405 9.03259 28.0963 9.6098 27.2813C10.164 26.3855 10.2818 25.2333 10.4225 24.1583C10.6867 21.3339 10.6608 18.348 11.7808 15.773C8.19694 15.6149 4.46092 13.9954 2.0516 10.6266C1.09821 9.35489 0.635871 7.68274 0.268299 6.05275C-0.300289 4.08903 0.207995 2.01641 0.230968 0ZM2.06883 8.45207C4.13929 11.6032 7.18325 13.6933 10.4081 14.4627L10.5546 14.6102C11.6257 14.7929 12.7112 14.8315 13.7823 14.5786C13.1276 15.8187 12.0995 16.8409 11.8296 18.3374C11.2868 21.3058 11.8612 24.6044 10.5833 27.348C10.1411 28.4546 9.06418 28.8551 8.57313 29.8949C8.30032 31.7603 8.43242 33.7134 7.95572 35.5401C7.70015 36.6608 7.08848 37.8657 7.6944 38.9863C8.43816 39.0214 9.18192 39.0039 9.92568 38.9196C9.10439 36.7205 9.10439 33.9699 10.2846 31.9675C12.1081 30.046 14.6237 29.2239 16.0883 26.7684C16.318 26.6349 16.5477 26.5014 16.7775 26.3644C16.7229 28.0612 17.9031 29.2696 18.1329 30.8891C18.4976 33.053 18.5205 35.5507 19.8846 37.2158C20.7805 38.3751 22.1733 38.2908 23.3708 38.2802C22.8194 36.6573 20.9184 36.6327 20.5652 34.8586C19.8989 31.7813 21.3233 28.7954 21.2113 25.7145C21.0734 25.1876 20.8408 24.7098 20.6513 24.211C23.9738 26.1326 27.4887 27.6291 31.1271 28.3246C31.107 27.1021 31.0324 25.8867 30.9922 24.6677C31.5464 26.0096 31.8134 27.485 32.1207 28.9288C31.9599 30.2075 31.5205 31.4265 31.466 32.7333C31.3741 34.7006 30.728 36.9875 31.9053 38.6631C32.7008 39.984 34.1625 39.71 35.3312 39.6854C35.0038 38.0413 32.8731 38.0589 32.8645 36.2603C33.6484 33.7029 34.8459 31.272 35.1044 28.5073C35.2307 29.0483 35.3628 29.5893 35.4892 30.1338C37.663 31.4968 40.0896 32.2767 42.0854 34.0472C43.4235 35.1853 43.748 37.2966 44.8479 38.6772C45.5974 39.5624 46.7116 39.3411 47.6564 39.3025C47.4611 38.1502 46.5881 37.676 45.8903 37.0437C45.2212 35.9055 45.2126 34.3422 44.4171 33.2849C42.8808 31.149 40.7184 29.8879 39.1189 27.8363C38.3407 26.8597 38.022 25.5108 37.7434 24.2286C38.1885 24.4639 38.4412 24.889 38.4987 25.5108C39.4262 23.6419 40.2303 21.6817 40.6179 19.5318C37.6946 17.4346 35.0498 14.7437 32.9018 11.5294C28.5685 13.876 23.7785 12.5587 19.2327 12.4463C18.1874 12.4568 17.1307 12.4041 16.1026 12.6711C15.1262 12.91 14.5175 13.9498 13.768 14.6524C14.1671 14.0025 14.5806 13.3702 14.9597 12.7062C10.9164 11.1149 6.57446 10.0434 3.12273 6.8291C2.23538 6.0668 1.37389 5.18155 0.897192 3.95905C1.21882 5.47312 1.25041 7.17337 2.06883 8.45207ZM35.4346 8.54692C36.836 11.6172 39.6933 12.8502 41.8642 14.9158C41.8729 14.6524 41.8843 14.1325 41.8901 13.8725C41.0372 12.9064 39.8885 12.2144 39.4377 10.8127C38.9151 9.29166 38.3206 7.73544 38.289 6.05275C37.3672 6.93098 36.4052 7.753 35.4346 8.54692ZM42.3065 15.1723C42.1284 15.7379 42.2691 15.9627 42.7286 15.8468C42.9009 15.2777 42.7602 15.0528 42.3065 15.1723Z" fill="#A24800" fill-opacity="0.866667"/>
<path d="M44.3109 9.22842C44.5665 8.88766 44.7732 8.4626 45.1293 8.25885C45.5026 8.4907 45.8386 8.82794 46.2607 8.92279L46.2292 9.23895C45.7209 10.0645 44.8565 9.91695 44.3109 9.22842Z" fill="#A24800" fill-opacity="0.866667"/>
<path d="M32.5917 28.4195C32.7582 28.423 33.0971 28.4265 33.2665 28.43C33.2005 29.0343 33.1804 29.7298 32.6778 30.053C32.6376 29.5085 32.6118 28.964 32.5917 28.4195Z" fill="#A24800" fill-opacity="0.866667"/>
<path d="M0.230968 0C1.18149 1.26816 1.71849 2.92977 2.8011 4.06444C4.51261 6.23893 6.94777 7.07501 9.14459 8.25535C10.8044 9.17924 12.5934 9.76941 14.147 10.9779C15.5197 12.0598 17.2025 11.287 18.7015 11.3994C22.0383 11.027 25.3781 12.1687 28.7178 11.6629C30.0215 11.5048 31.3052 11.157 32.5428 10.6371C32.7611 9.34084 33.2837 8.16752 34.1223 7.3174C34.0935 7.76003 34.0361 8.64528 34.0074 9.08791C34.2256 8.56448 34.2687 7.98134 34.3089 7.40522C36.4598 7.27173 37.5769 4.77405 39.1764 3.41104C41.3588 1.94967 44.0926 2.89113 45.9765 4.63353C46.8868 5.50122 47.5415 7.15932 47.0505 8.50476C46.7231 8.66636 46.3785 8.49423 46.0971 8.29048C46.3182 7.32794 46.143 6.21434 45.4739 5.58202C44.242 4.3806 42.6252 3.96257 41.0831 3.87474C39.9374 3.94149 39.1764 5.22019 38.6451 6.33027C39.4578 8.84552 40.3509 11.424 41.8556 13.4509C41.9016 10.4298 41.6805 7.41225 41.4909 4.40168C41.712 4.75649 41.9102 5.14291 41.9992 5.58202C42.4242 8.17806 42.2318 10.8935 42.9095 13.4334C42.9268 14.4346 43.3144 15.5201 44.2448 15.5903C45.5601 15.766 47.0533 16.047 48.2623 15.232C49.0893 14.5821 48.5351 13.4228 48.2795 12.5868C48.8395 12.3865 49.4081 12.2249 49.9853 12.1231C49.3392 10.5352 47.9407 9.90993 46.792 9.01765C46.9873 8.96847 47.3807 8.86659 47.5788 8.8139C48.6844 9.79752 50.1518 10.2507 50.9932 11.6242C51.0708 12.6535 50.4649 13.4615 50.0341 14.2624C49.4196 15.2847 48.7533 16.5002 47.6506 16.7355C46.5077 16.8796 45.3533 16.8409 44.2046 16.9217C43.5815 16.8444 42.8779 16.6266 42.3208 17.1079C41.5225 18.7836 41.4881 20.8175 40.8161 22.5634C40.46 23.677 39.8426 24.6255 39.4463 25.7145C39.5009 26.3188 39.8483 26.7825 40.1412 27.2426C41.4995 29.1466 43.4092 30.2567 44.9168 31.95C45.8185 32.9265 46.0827 34.402 46.4876 35.7228C46.726 36.5905 47.5559 36.7416 48.0986 37.2263C48.8452 37.7463 49.3392 39.1584 48.6787 40.0051C47.7425 41.3892 46.0138 41.1468 44.8422 40.3809C42.9698 39.1233 42.809 36.0039 40.9683 34.7076C39.3085 33.457 37.5137 32.4734 35.6557 31.7603C34.9866 33.3446 34.0935 34.8446 33.8494 36.6362C34.6707 37.3598 36.2674 37.5566 36.1726 39.1339C36.1353 39.7275 36.1784 40.6409 35.5437 40.7322C34.3348 41.1749 33.054 40.7744 31.8278 40.6233C30.9749 39.4149 30.257 37.9149 30.3432 36.2603C30.4178 34.0788 30.6389 31.9043 30.9519 29.7544C30.5356 29.4804 30.0531 29.4312 29.6023 29.2977C26.9517 28.6935 24.5079 27.2426 21.9981 26.0939C22.2336 28.711 21.2429 31.2087 21.4525 33.8118C21.6162 35.6209 23.4454 35.8774 24.0284 37.3739C24.6314 38.2627 23.925 39.7943 22.9975 39.6573C21.9436 39.6573 20.7432 39.861 19.8415 39.039C18.2305 37.2861 17.5786 34.6233 17.369 32.0764C17.2972 30.731 16.8579 29.4944 16.2519 28.3914C14.773 30.334 12.6049 31.1595 10.902 32.7509C10.2186 33.5624 10.0779 34.806 10.009 35.9125C9.92281 36.8224 10.5862 37.3844 10.9394 38.0659C11.1662 38.6983 10.9049 39.4641 10.5029 39.8927C9.64139 40.3634 8.65354 40.2685 7.74035 40.135C6.89895 40.0788 6.39929 38.9828 6.42513 38.0413C6.3677 36.7626 7.02531 35.6912 7.31247 34.5144C7.81214 32.9336 7.43308 31.1982 7.75471 29.5787C7.99593 28.4405 9.03259 28.0963 9.6098 27.2813C10.164 26.3855 10.2818 25.2333 10.4225 24.1583C10.6867 21.3339 10.6608 18.348 11.7808 15.773C8.19694 15.6149 4.46092 13.9954 2.0516 10.6266C1.09821 9.35489 0.635871 7.68274 0.268299 6.05275C-0.300289 4.08903 0.207995 2.01641 0.230968 0ZM2.06883 8.45207C4.13929 11.6032 7.18325 13.6933 10.4081 14.4627L10.5546 14.6102C11.6257 14.7929 12.7112 14.8315 13.7823 14.5786C13.1276 15.8187 12.0995 16.8409 11.8296 18.3374C11.2868 21.3058 11.8612 24.6044 10.5833 27.348C10.1411 28.4546 9.06418 28.8551 8.57313 29.8949C8.30032 31.7603 8.43242 33.7134 7.95572 35.5401C7.70015 36.6608 7.08848 37.8657 7.6944 38.9863C8.43816 39.0214 9.18192 39.0039 9.92568 38.9196C9.10439 36.7205 9.10439 33.9699 10.2846 31.9675C12.1081 30.046 14.6237 29.2239 16.0883 26.7684C16.318 26.6349 16.5477 26.5014 16.7775 26.3644C16.7229 28.0612 17.9031 29.2696 18.1329 30.8891C18.4976 33.053 18.5205 35.5507 19.8846 37.2158C20.7805 38.3751 22.1733 38.2908 23.3708 38.2802C22.8194 36.6573 20.9184 36.6327 20.5652 34.8586C19.8989 31.7813 21.3233 28.7954 21.2113 25.7145C21.0734 25.1876 20.8408 24.7098 20.6513 24.211C23.9738 26.1326 27.4887 27.6291 31.1271 28.3246C31.107 27.1021 31.0324 25.8867 30.9922 24.6677C31.5464 26.0096 31.8134 27.485 32.1207 28.9288C31.9599 30.2075 31.5205 31.4265 31.466 32.7333C31.3741 34.7006 30.728 36.9875 31.9053 38.6631C32.7008 39.984 34.1625 39.71 35.3312 39.6854C35.0038 38.0413 32.8731 38.0589 32.8645 36.2603C33.6484 33.7029 34.8459 31.272 35.1044 28.5073C35.2307 29.0483 35.3628 29.5893 35.4892 30.1338C37.663 31.4968 40.0896 32.2767 42.0854 34.0472C43.4235 35.1853 43.748 37.2966 44.8479 38.6772C45.5974 39.5624 46.7116 39.3411 47.6564 39.3025C47.4611 38.1502 46.5881 37.676 45.8903 37.0437C45.2212 35.9055 45.2126 34.3422 44.4171 33.2849C42.8808 31.149 40.7184 29.8879 39.1189 27.8363C38.3407 26.8597 38.022 25.5108 37.7434 24.2286C38.1885 24.4639 38.4412 24.889 38.4987 25.5108C39.4262 23.6419 40.2303 21.6817 40.6179 19.5318C37.6946 17.4346 35.0498 14.7437 32.9018 11.5294C28.5685 13.876 23.7785 12.5587 19.2327 12.4463C18.1874 12.4568 17.1307 12.4041 16.1026 12.6711C15.1262 12.91 14.5175 13.9498 13.768 14.6524C14.1671 14.0025 14.5806 13.3702 14.9597 12.7062C10.9164 11.1149 6.57446 10.0434 3.12273 6.8291C2.23538 6.0668 1.37389 5.18155 0.897192 3.95905C1.21882 5.47312 1.25041 7.17337 2.06883 8.45207ZM35.4346 8.54692C36.836 11.6172 39.6933 12.8502 41.8642 14.9158C41.8729 14.6524 41.8843 14.1325 41.8901 13.8725C41.0372 12.9064 39.8885 12.2144 39.4377 10.8127C38.9151 9.29166 38.3206 7.73544 38.289 6.05275C37.3672 6.93098 36.4052 7.753 35.4346 8.54692ZM42.3065 15.1723C42.1284 15.7379 42.2691 15.9627 42.7286 15.8468C42.9009 15.2777 42.7602 15.0528 42.3065 15.1723Z" stroke="#A24800" stroke-opacity="0.866667" stroke-width="2" mask="url(#path-1-inside-1_12_148)"/>
<path d="M44.3109 9.22842C44.5665 8.88766 44.7732 8.4626 45.1293 8.25885C45.5026 8.4907 45.8386 8.82794 46.2607 8.92279L46.2292 9.23895C45.7209 10.0645 44.8565 9.91695 44.3109 9.22842Z" stroke="#A24800" stroke-opacity="0.866667" stroke-width="2" mask="url(#path-1-inside-1_12_148)"/>
<path d="M32.5917 28.4195C32.7582 28.423 33.0971 28.4265 33.2665 28.43C33.2005 29.0343 33.1804 29.7298 32.6778 30.053C32.6376 29.5085 32.6118 28.964 32.5917 28.4195Z" stroke="#A24800" stroke-opacity="0.866667" stroke-width="2" mask="url(#path-1-inside-1_12_148)"/>
</svg>
