<svg width="113" height="43" viewBox="0 0 113 43" fill="none" xmlns="http://www.w3.org/2000/svg">
<path d="M16.8372 42.4053C17.0684 42.4631 17.3131 42.4266 17.5174 42.3041C17.7217 42.1815 17.869 41.9827 17.9268 41.7516C17.9846 41.5204 17.9481 41.2757 17.8256 41.0714C17.703 40.8671 17.5042 40.7198 17.2731 40.662C16.2395 40.3977 15.0983 40.0597 14.2232 39.6832C14.2143 39.679 14.2063 39.675 14.1994 39.6715C14.2038 39.6737 14.2121 39.6777 14.2307 39.6883C14.2465 39.698 14.2309 39.6864 14.289 39.7252C14.3156 39.7444 14.3509 39.7673 14.4162 39.8329C14.4489 39.8671 14.4908 39.912 14.5418 39.9955C14.5816 40.1086 14.6856 40.0989 14.66 40.5961C14.6309 40.8105 14.4978 41.0204 14.3706 41.1283C14.2423 41.2409 14.1338 41.2835 14.0562 41.3103C13.9005 41.3587 13.8338 41.3533 13.7823 41.3558C13.7097 41.3551 13.7207 41.3537 13.6975 41.3523C13.6658 41.3493 13.6482 41.3464 13.6352 41.3442C13.6074 41.3393 13.6103 41.3395 13.6043 41.3383C13.5921 41.3356 13.61 41.3404 13.6224 41.3444C13.6527 41.3539 13.6901 41.3663 13.727 41.3791C13.8029 41.4055 13.8826 41.4349 13.9628 41.4656C14.1216 41.5266 14.2832 41.5927 14.4432 41.6594C14.6032 41.7261 14.764 41.7943 14.9223 41.8606C15.0015 41.8937 15.0814 41.9268 15.1581 41.9586C15.2201 41.984 15.3599 42.0428 15.3115 42.0233C15.3725 42.0538 15.4281 42.0812 15.4785 42.1056C15.5247 42.1279 15.5854 42.1572 15.64 42.1838C15.6866 42.2065 15.7509 42.2379 15.7951 42.2596C15.801 42.2625 15.8257 42.2747 15.8355 42.2796C15.8378 42.2807 15.8393 42.2815 15.8398 42.2817C15.8392 42.2814 15.8425 42.2831 15.8365 42.2801C15.8355 42.2795 15.835 42.2793 15.8303 42.2769C15.8259 42.2745 15.8303 42.2773 15.8019 42.2617C15.7886 42.2535 15.7937 42.2602 15.7163 42.2085C15.6913 42.1892 15.6687 42.1815 15.5711 42.0857C15.5274 42.0265 15.4281 41.9832 15.3195 41.6413C15.2681 41.4974 15.2646 41.0986 15.4481 40.8422C15.6437 40.5506 15.8837 40.4628 16.0231 40.4225C16.3016 40.3588 16.3657 40.3945 16.4382 40.3987C16.4977 40.4081 16.528 40.4166 16.5519 40.423C16.5989 40.4362 16.6166 40.4432 16.632 40.4487C16.7197 40.483 16.6978 40.4763 16.7106 40.4815C16.7366 40.4939 16.726 40.4889 16.7296 40.4906C16.7312 40.4914 16.7313 40.4915 16.7315 40.4916C16.7319 40.4918 16.7319 40.4918 16.7317 40.4917C16.7307 40.4912 16.7208 40.4862 16.7092 40.4804C16.6925 40.472 16.6668 40.459 16.6326 40.4417C16.5899 40.42 16.5299 40.3894 16.4767 40.362C16.2646 40.253 16.0581 40.1448 15.8468 40.0328C15.4244 39.8089 15.0089 39.5832 14.5859 39.3489C13.7548 38.8884 12.9162 38.4052 12.098 37.9152C9.03011 36.0702 6.04039 34.0549 3.40268 31.7078C2.92311 31.2775 2.46519 30.8293 2.1589 30.3923C1.93046 30.064 1.82632 29.774 1.77566 29.3889C1.70126 28.8448 1.7259 28.2877 1.79047 27.7112C1.93275 26.4463 2.39699 25.1166 2.85619 23.7384C3.04264 23.1809 3.27103 22.6404 3.54102 22.1217C4.69146 19.8924 6.6411 18.1115 8.94331 17.0631C9.48301 16.8157 10.0138 16.5842 10.5564 16.3616C16.0285 13.9283 21.9627 13.8996 28.1137 13.9089C28.6116 13.9035 29.1123 13.921 29.6138 13.9586C33.8759 14.3004 38.0579 15.9333 42.026 17.8662C42.4492 18.0737 42.863 18.2812 43.2789 18.4947C48.6208 21.2396 53.7076 24.7718 59.1394 27.6954C59.5013 27.8952 59.8635 28.0865 60.2311 28.2725C65.66 30.9091 71.1976 32.3815 76.5043 34.6765C76.8211 34.8075 77.1329 34.9332 77.4453 35.0558C83.8194 37.6407 91.0371 38.7088 97.8653 37.7254C98.143 37.6932 98.4227 37.6515 98.6959 37.6026C104.693 36.3423 109.4 32.6452 113.426 28.5294C113.578 28.3677 113.722 28.2064 113.865 28.0378C117.297 24.0638 117.315 18.6169 117.042 14.1269C117.032 13.9454 117.021 13.7646 117.007 13.5824C116.849 11.6663 116.499 9.58156 115.209 7.75852C115.111 7.62173 115.007 7.48548 114.903 7.35541C111.962 3.90399 108.093 2.34667 104.592 0.515373C104.481 0.45955 104.37 0.40604 104.259 0.354793C100.434 -1.40988 96.3259 -0.463154 92.9167 0.277182C92.822 0.297568 92.7277 0.319105 92.6338 0.34179C90.6377 0.828862 88.861 1.77673 87.2832 2.90723C87.2209 2.95206 87.1595 2.99776 87.099 3.0443C83.4896 6.0744 83.3762 10.4598 82.8929 14.0155C82.8862 14.0766 82.8806 14.1374 82.876 14.198C82.7639 15.6641 83.2633 16.9793 83.8002 18.0394C84.1702 18.7706 84.5831 19.4289 84.9163 20.029L85.1387 20.3251C85.1716 20.3583 85.2049 20.3912 85.2385 20.4238C86.81 21.9394 88.7858 22.6795 90.6716 23.1103L90.7793 23.1306C90.7967 23.133 90.8141 23.1354 90.8314 23.1377C92.2072 23.3179 93.4887 23.2873 94.7304 23.2817C95.0697 23.2791 95.3951 23.141 95.635 22.8993C95.8749 22.6575 96.0097 22.3319 96.0097 21.9927C96.0097 21.6534 95.8749 21.3278 95.635 21.086C95.3951 20.8443 95.0697 20.7062 94.7304 20.7036C93.4928 20.693 92.2843 20.6872 91.1991 20.5287C91.1854 20.5267 91.1718 20.5247 91.1582 20.5226L91.2659 20.5429C89.6571 20.161 88.1509 19.5057 87.1145 18.494C87.092 18.4722 87.0698 18.4502 87.0479 18.4282L87.2703 18.7243C86.8801 18.0258 86.5007 17.4201 86.199 16.8232C85.7527 15.9529 85.4932 15.1265 85.5529 14.4001C85.5552 14.3693 85.5581 14.3386 85.5614 14.3078C85.9477 10.769 86.4332 6.94937 88.7297 5.16081C88.7679 5.13132 88.8066 5.10237 88.8458 5.07397C90.2184 4.08179 91.7099 3.27008 93.2577 2.88051C93.3305 2.86224 93.4033 2.84492 93.4762 2.82854C96.9417 2.01788 100.369 1.32571 103.209 2.65045C103.293 2.68891 103.377 2.72911 103.462 2.7711C106.975 4.55326 110.702 6.22273 112.956 8.91453C113.036 9.01324 113.114 9.11532 113.187 9.2164C114.051 10.3998 114.429 12.0644 114.565 13.7735C114.578 13.9351 114.589 14.0967 114.598 14.2599C114.898 18.7407 114.762 23.3256 112.028 26.4865C111.913 26.6236 111.796 26.7551 111.673 26.8874C107.969 30.7479 103.352 34.2708 98.2827 35.3114C98.0542 35.353 97.8224 35.3881 97.5946 35.4151C91.0143 36.3629 84.436 35.3918 78.2803 32.9256C77.9809 32.8084 77.6818 32.6882 77.3774 32.5626C72.0112 30.2532 66.2786 28.6907 61.2573 26.2416C60.9136 26.0681 60.5756 25.8899 60.2378 25.7038C54.8731 22.8248 49.8667 19.3419 44.3082 16.4862C43.8796 16.2669 43.4533 16.0536 43.0178 15.8407C38.9082 13.8525 34.5371 12.1117 29.7797 11.7275C29.2191 11.6861 28.6545 11.6668 28.0876 11.6738C22.1096 11.6642 15.4982 11.7116 9.715 14.3149C9.14215 14.551 8.58448 14.7955 8.01982 15.056C5.31295 16.2938 2.97404 18.4347 1.60227 21.117C1.28058 21.74 1.00952 22.3873 0.789803 23.0511C0.342772 24.4233 -0.176153 25.8515 -0.35712 27.4785C-0.43648 28.2198 -0.397871 29.0041 -0.225443 29.7651C-0.101228 30.3699 0.200199 31.024 0.554083 31.514C1.03258 32.1878 1.56676 32.6873 2.0948 33.1668C4.87847 35.6483 7.93599 37.721 11.0729 39.6214C11.9094 40.1255 12.7658 40.6218 13.6163 41.095C14.0492 41.3359 14.4748 41.5678 14.9096 41.7989C15.1273 41.9145 15.3402 42.0262 15.5621 42.1404C15.6179 42.1691 15.6811 42.2015 15.7268 42.2247C15.7635 42.2433 15.7916 42.2575 15.8107 42.2671C15.824 42.2738 15.8357 42.2797 15.8395 42.2816C15.8401 42.2819 15.8405 42.2821 15.8412 42.2824C15.8417 42.2827 15.8419 42.2827 15.8435 42.2836C15.8471 42.2853 15.8366 42.2803 15.8625 42.2927C15.8753 42.2979 15.8534 42.2912 15.9412 42.3255C15.9566 42.331 15.9743 42.338 16.0213 42.3512C16.0451 42.3576 16.0755 42.3661 16.135 42.3755C16.2074 42.3797 16.2715 42.4154 16.5501 42.3517C16.6894 42.3114 16.9295 42.2236 17.125 41.932C17.3086 41.6756 17.305 41.2768 17.2537 41.1329C17.1451 40.7911 17.0457 40.7477 17.0021 40.6886C16.9045 40.5927 16.8818 40.585 16.8569 40.5657C16.7795 40.514 16.7846 40.5207 16.7713 40.5125C16.7428 40.497 16.7473 40.4997 16.7428 40.4973C16.7382 40.4949 16.7377 40.4947 16.7366 40.4941C16.7303 40.491 16.733 40.4923 16.7315 40.4916C16.7299 40.4908 16.7277 40.4897 16.7246 40.4881C16.7118 40.4818 16.6849 40.4685 16.6785 40.4654C16.6304 40.4417 16.5633 40.4089 16.5148 40.3853C16.4581 40.3577 16.3956 40.3274 16.3481 40.3045C16.2963 40.2795 16.2388 40.2525 16.1754 40.2233C15.9675 40.1334 15.9409 40.1338 15.8372 40.0979C15.7486 40.0693 15.661 40.0426 15.5741 40.0171C15.4009 39.9661 15.2271 39.9184 15.0538 39.8713C14.8803 39.8241 14.706 39.7772 14.5312 39.7289C14.4425 39.7044 14.3546 39.6797 14.262 39.6537C14.216 39.6409 14.1705 39.628 14.1133 39.6126C14.0838 39.6048 14.0629 39.5987 14.0027 39.5849C13.9851 39.5811 13.9836 39.5802 13.9398 39.5724C13.9205 39.5692 13.8976 39.5655 13.8614 39.5621C13.8356 39.5604 13.8464 39.559 13.7695 39.5583C13.7154 39.5607 13.6468 39.5556 13.4897 39.6044C13.4114 39.6315 13.3023 39.6744 13.1737 39.7873C13.0462 39.8955 12.9128 40.1058 12.8837 40.3206C12.858 40.819 12.9622 40.8096 13.0025 40.9235C13.0539 41.0076 13.0963 41.0533 13.1298 41.0883C13.1968 41.1555 13.2343 41.1803 13.2642 41.2017C13.3311 41.2464 13.315 41.2342 13.3359 41.247C13.3627 41.2623 13.3815 41.2718 13.3989 41.2805C13.4162 41.289 13.4336 41.2974 13.4512 41.3058C14.6512 41.8195 15.6881 42.1047 16.8372 42.4053Z" fill="black"/>
<path d="M17.3422 35.4318C17.5215 35.4353 17.3523 35.5301 17.3436 35.2574C17.3435 35.2537 17.3435 35.2499 17.3434 35.2462C17.3417 35.1365 17.3503 34.9964 17.3612 34.8167C17.3626 34.7938 17.3642 34.7699 17.3656 34.7457C17.3777 34.5298 17.3933 34.2557 17.386 33.8876C17.3734 33.2666 17.2094 32.8543 16.8814 32.5528C16.768 32.4474 16.6446 32.35 16.455 32.212C16.5844 32.3215 16.7488 32.4616 16.9957 32.7174C17.0576 32.7819 17.1249 32.8546 17.199 32.9389C17.236 32.9811 17.2746 33.0262 17.3152 33.0749C17.3354 33.0993 17.3561 33.1245 17.3773 33.1507C17.4008 33.1796 17.4647 33.2599 17.512 33.3227C17.8608 33.8868 18.6999 34.6519 18.8867 37.2212C18.9037 37.8656 18.845 38.5639 18.6023 39.382C18.3256 40.3226 17.7958 41.2487 17.1783 41.937C15.9069 43.3401 14.6305 43.7738 13.8454 43.9953C13.044 44.2075 12.4657 44.2115 12.3755 44.2185C12.1775 44.2263 12.0121 44.2246 11.868 44.2195C11.3095 44.1968 10.9961 44.1301 10.8407 44.1014C10.302 43.9859 10.2463 43.9446 10.1435 43.9112C9.99202 43.8518 9.98452 43.8349 9.97012 43.8182C9.95596 43.7892 9.99627 43.7804 10.0222 43.773C10.3782 43.7166 10.9267 43.9719 11.5667 44.271C11.6258 44.2985 11.6791 44.3236 11.7394 44.3519C11.7851 44.373 11.7255 44.3469 11.8769 44.4158C11.9466 44.4477 12.0167 44.4795 12.0878 44.5108C12.1788 44.5508 12.1718 44.7778 12.0725 45.0197C11.9731 45.2616 11.8149 45.4245 11.7195 45.3823C11.6427 45.3484 11.5672 45.3146 11.4925 45.2807C11.3742 45.2274 11.4254 45.2501 11.4073 45.2419C11.4015 45.2392 11.3951 45.2362 11.3879 45.2328C11.3786 45.2283 11.3678 45.2232 11.3555 45.2174C11.3552 45.2173 11.3548 45.2171 11.3545 45.2169C11.2932 45.1879 11.2365 45.161 11.1758 45.1326C10.5438 44.8348 10.0208 44.5862 9.68803 44.6396C9.66282 44.6475 9.62064 44.656 9.63735 44.6861C9.6529 44.7032 9.66748 44.7223 9.81995 44.7828C9.94155 44.8226 9.96533 44.8546 10.5422 44.9879C10.6569 45.0107 10.9254 45.0768 11.4701 45.1254C11.7468 45.1472 12.0957 45.1688 12.6284 45.1342C13.1236 45.0895 13.9854 45.0356 15.2793 44.4653C16.5253 43.9486 18.5676 42.3925 19.3731 40.0092C20.5878 35.7907 18.9705 34.0512 18.5635 33.2063C18.419 32.985 18.2881 32.8078 18.17 32.6571C18.0454 32.5002 18.0442 32.5012 17.9849 32.4302C17.8889 32.317 17.8022 32.2211 17.723 32.1367C17.4073 31.8032 17.2044 31.6322 17.0458 31.4981C17.2469 31.6492 17.3702 31.7509 17.4822 31.8593C17.8121 32.1753 17.9466 32.5979 17.9174 33.2312C17.899 33.6036 17.862 33.8785 17.8307 34.0929C17.8272 34.1163 17.8236 34.1393 17.8202 34.1613C17.8201 34.1618 17.82 34.1624 17.8199 34.1629C17.7923 34.341 17.7697 34.4723 17.756 34.5738C17.7558 34.5758 17.7556 34.5778 17.7554 34.5798C17.7255 34.8475 17.8321 34.7257 17.5776 34.6997C17.5304 34.6965 17.4365 34.8567 17.3807 35.0613C17.3252 35.2658 17.3126 35.4332 17.3422 35.4318ZM7.7076 27.3836C7.38354 27.0451 7.48496 26.6363 7.71057 26.3207C7.72261 26.3036 7.73502 26.2867 7.74776 26.2701C7.97504 25.9728 8.30834 25.751 8.50769 25.6589C8.71393 25.5614 8.80799 25.4284 8.89255 25.2602C8.91192 25.2217 8.93071 25.1817 8.95037 25.1405C9.01509 25.0052 9.09026 24.8531 9.22239 24.7073C9.70953 24.172 9.88757 23.8028 9.98711 23.5135C10.0076 23.4548 10.025 23.3987 10.0417 23.3466C10.0417 23.3465 10.0417 23.3464 10.0418 23.3464C10.1045 23.15 10.1562 23.0022 10.3233 22.9267C10.6209 22.7931 10.8794 22.6969 11.3098 22.6599C11.9017 22.6105 12.0878 22.2096 11.9783 21.7679C11.9722 21.7437 11.9654 21.7186 11.9591 21.6934C11.8787 21.3726 11.7876 20.968 11.8709 20.4777C11.9408 20.0701 12.161 19.8177 12.3892 19.6256C12.4548 19.5704 12.5212 19.5207 12.5845 19.4728C12.7445 19.3518 12.8896 19.2455 12.9818 19.1062C13.5594 18.2402 14.145 17.9288 14.6153 17.8579C14.6379 17.8545 14.6604 17.8516 14.6826 17.8492L13.6447 18.6373C13.7438 18.7477 13.798 18.9072 13.8463 19.0506C13.8685 19.1187 13.8879 19.1844 13.9045 19.2435C13.921 19.3029 13.935 19.3564 13.9447 19.3989C14.0272 19.7793 14.0464 19.9506 14.179 20.136C14.2083 20.1772 14.2417 20.22 14.2815 20.2661C14.4144 20.4202 14.5247 20.3747 14.6112 20.2896C14.6502 20.2522 14.683 20.2083 14.7176 20.1657C14.7182 20.1647 14.7188 20.1638 14.7194 20.1629C14.7242 20.1569 14.7291 20.1515 14.7339 20.1457C14.7375 20.1413 14.7412 20.1358 14.7446 20.1315C14.7455 20.1262 14.7465 20.1227 14.7472 20.1197C14.7477 20.1172 14.7482 20.1155 14.7485 20.1144C14.7485 20.1139 14.7485 20.1135 14.7485 20.1131C14.7536 20.0924 14.7593 20.0838 14.7605 20.0821C14.7625 20.0789 14.7644 20.0774 14.7654 20.0763C14.7705 20.0709 14.7776 20.0674 14.7824 20.0654C14.7947 20.0602 14.8164 20.0534 14.852 20.0447C14.8826 20.0263 14.9079 19.9979 14.9432 19.9615C14.9454 19.9592 14.9476 19.9568 14.9498 19.9544C14.9839 19.919 15.0266 19.878 15.0794 19.837C15.1285 19.7996 15.2002 19.9982 15.236 20.2811C15.2719 20.564 15.2596 20.8235 15.2124 20.8607C15.1635 20.8991 15.1277 20.9374 15.094 20.9727C15.0919 20.975 15.0898 20.9774 15.0877 20.9798C15.0532 21.0165 15.023 21.0507 14.9884 21.0725C14.9766 21.0798 14.9645 21.0858 14.9533 21.0904C14.9338 21.1055 14.9132 21.1299 14.8901 21.1606C14.8854 21.1667 14.8806 21.1724 14.8758 21.1789C14.8435 21.2211 14.8083 21.27 14.7713 21.3098C14.6825 21.4031 14.5742 21.4489 14.4627 21.2748C14.4332 21.2292 14.4102 21.1862 14.3914 21.1435C14.3008 20.9484 14.3416 20.7487 14.3213 20.3166C14.3178 20.2577 14.3093 20.1919 14.2991 20.1225C14.2953 20.0963 14.291 20.0695 14.2864 20.0423C14.2567 19.8797 14.2293 19.6934 14.1564 19.5486L15.423 18.5868C15.3896 18.589 15.3554 18.5924 15.3206 18.5971C14.8804 18.6558 14.3167 18.942 13.7673 19.7685C13.6747 19.9087 13.5246 20.0153 13.3672 20.1311C13.3071 20.1752 13.2466 20.2213 13.1871 20.2702C12.9701 20.4481 12.7658 20.6795 12.7077 21.057C12.6378 21.5167 12.7328 21.8963 12.8185 22.2042C12.8218 22.215 12.825 22.2258 12.8282 22.2366C12.8319 22.2498 12.8357 22.2629 12.8393 22.2758C12.9643 22.73 12.7899 23.1295 12.1467 23.1633C11.7418 23.186 11.4991 23.2657 11.2099 23.3832C11.0677 23.4415 11.0268 23.5594 10.9695 23.7384C10.9534 23.7887 10.935 23.844 10.9141 23.9042C10.8199 24.1782 10.6498 24.5241 10.1694 25.0201C10.0446 25.1496 9.97521 25.2843 9.913 25.4088C9.89361 25.4477 9.87443 25.486 9.8547 25.5234C9.77241 25.6798 9.67537 25.8184 9.43935 25.9209C9.25925 25.9975 8.94683 26.1885 8.72902 26.4506C8.71258 26.4704 8.69666 26.4906 8.68138 26.511C8.46196 26.8018 8.38375 27.158 8.66848 27.4412C8.69805 27.4707 8.72724 27.5002 8.75677 27.5296C8.83073 27.6033 8.90554 27.6767 8.9859 27.7491L8.83503 26.1176C9.0321 26.0349 9.26048 25.9554 9.57569 25.8304C10.9595 25.237 11.3553 25.0399 11.628 25.324C11.8846 25.5846 11.9753 26.22 12.2195 26.6295C12.2258 26.6402 12.2322 26.651 12.2386 26.6618C12.8146 27.6183 13.5137 28.2444 13.7366 28.4487C13.7473 28.4584 13.7571 28.4671 13.7658 28.4751C13.7736 28.4822 13.781 28.4882 13.7872 28.4939C13.8801 28.5795 13.9848 28.6315 14.0948 28.6859C14.1008 28.6889 14.1069 28.6918 14.1129 28.6948C14.2288 28.752 14.3505 28.8154 14.4629 28.9243C14.8809 29.329 15.2725 29.6217 15.6217 29.8701C15.6859 29.9158 15.748 29.9604 15.809 30.003C15.8092 30.0032 15.8093 30.0033 15.8095 30.0035C16.0848 30.197 16.3205 30.359 16.5393 30.5489C16.9263 30.8849 17.2425 31.0763 17.4909 31.2042C17.5726 31.2474 17.6487 31.2852 17.7202 31.3203C17.8767 31.3977 18.0016 31.4554 18.1345 31.5521C18.3734 31.7247 18.619 31.8498 18.874 31.987C18.8963 31.9988 18.9182 32.011 18.9403 32.0228C19.2216 32.1769 19.4927 32.3295 19.8025 32.6086C19.8714 32.6708 19.7858 32.8828 19.6114 33.0795C19.4369 33.2759 19.242 33.386 19.1761 33.3266C18.8862 33.0661 18.6248 32.9194 18.3438 32.7663C18.3218 32.7547 18.2993 32.7435 18.277 32.7318C18.0258 32.5984 17.7749 32.4692 17.5327 32.2953C17.4052 32.2031 17.2856 32.1475 17.1326 32.0726C17.0602 32.0373 16.9817 31.999 16.8953 31.9535C16.6408 31.8228 16.3192 31.6298 15.9247 31.2892C15.7061 31.1004 15.4723 30.9397 15.1934 30.7443C15.1313 30.701 15.0673 30.6564 15.0014 30.6098C14.6471 30.3586 14.2477 30.0609 13.819 29.6486C13.7106 29.5443 13.5937 29.4826 13.4761 29.4242C13.4696 29.4208 13.463 29.4174 13.4565 29.414C13.3456 29.3589 13.2325 29.3031 13.1321 29.2111C13.1187 29.1988 13.1018 29.1828 13.0811 29.1641C12.852 28.955 12.1353 28.3184 11.521 27.3248C11.5192 27.3217 11.5174 27.3185 11.5157 27.3153C11.114 26.6549 10.9705 26.3264 10.6265 26.2702C10.3534 26.2213 10.241 26.1411 10.1637 26.0646C10.1493 26.0505 10.136 26.0376 10.1242 26.0251C10.0729 25.9709 10.039 25.9361 9.95581 25.9283C9.70661 25.9068 9.38566 26.0165 8.77808 26.2036C8.37298 26.3304 8.08212 26.3687 7.8466 26.4064L7.96127 27.6465C7.9031 27.589 7.84855 27.5323 7.79584 27.4768C7.79547 27.4764 7.79511 27.476 7.79475 27.4756C7.76517 27.4445 7.73637 27.4138 7.7076 27.3836ZM15.8425 19.0788C15.9034 19.0828 15.972 19.3174 15.9938 19.6033C16.0156 19.8894 15.9834 20.1186 15.924 20.1146C15.7806 20.1047 15.641 20.0952 15.5024 20.0864C15.4455 20.0825 15.379 19.8487 15.3519 19.5635C15.3259 19.2779 15.3511 19.0486 15.41 19.0519C15.5529 19.0602 15.6961 19.0693 15.8425 19.0788ZM2.85245 27.8746C2.85007 27.8723 2.84788 27.87 2.84589 27.8676C2.79774 27.7155 2.76503 27.2862 2.77741 27.1271C2.7436 27.0522 2.92039 27.0012 3.18037 27.0135C3.44806 27.0262 3.70331 27.0983 3.75141 27.1732C3.76092 27.188 3.77342 27.2065 3.78866 27.2284C3.78274 27.3045 3.79838 27.5098 3.82141 27.5826C3.86008 27.6114 3.91003 27.6468 3.97023 27.6871C4.67771 28.2624 6.66682 28.7432 8.0016 29.6054C8.11482 29.6815 8.22092 29.7483 8.32212 29.8107C8.75402 30.0724 9.51406 29.8788 10.148 30.5517C11.3274 31.794 12.4861 33.1559 13.7311 34.4778C14.3545 35.1408 14.9898 35.7802 15.6843 36.4331C15.8481 36.5886 16.0379 36.7645 16.2149 36.9325C16.4247 37.1411 16.5507 37.2193 16.9105 37.6677C16.9565 37.7342 16.9949 37.77 17.108 37.9872C17.1572 38.088 17.2132 38.2145 17.2558 38.406C17.2765 38.5018 17.2931 38.6147 17.2949 38.7485C17.3011 38.8821 17.2687 39.2154 17.1375 39.4825C16.871 40.0759 16.2805 40.3565 15.9852 40.4126C15.8167 40.4508 15.7085 40.4565 15.6064 40.4592C15.4084 40.4615 15.2815 40.44 15.1694 40.4196C14.9278 40.3743 14.7163 40.3008 14.6048 40.2658C14.3007 40.1629 14.1114 40.0948 13.8412 39.9961C13.7185 39.949 13.6494 39.9271 13.5522 39.8938C13.1501 39.7587 12.7375 39.6383 12.3292 39.5444C12.1531 39.5042 11.9791 39.4599 11.8206 39.4194C11.7433 39.4 11.6651 39.3799 11.613 39.3701C11.5913 39.3665 11.5623 39.3618 11.5967 39.3764C11.606 39.3801 11.6187 39.385 11.6544 39.3949C11.7012 39.405 11.697 39.4141 11.9028 39.4398C11.9524 39.4449 12.013 39.4497 12.0952 39.4501C12.1364 39.4503 12.1831 39.4492 12.2377 39.4455C12.3437 39.4373 12.5082 39.4212 12.7348 39.3462C12.9579 39.27 13.2842 39.1241 13.5971 38.7789C13.9177 38.4461 14.1025 37.8753 14.1093 37.5736C14.14 36.8665 13.9141 36.5489 13.8096 36.3582C13.7524 36.2657 13.6898 36.1857 13.6635 36.1537C13.6434 36.1289 13.6249 36.1072 13.6078 36.0879C13.5735 36.0493 13.5447 36.0196 13.5198 35.9948C13.4701 35.9457 13.4355 35.9157 13.4087 35.8929C13.5438 35.9934 13.6508 36.0776 13.7553 36.1616C14.299 36.6007 14.7264 37.0552 15.1668 37.475C15.5469 37.8559 16.1151 38.4875 16.4267 38.6717C16.4079 38.6703 16.3878 38.669 16.3608 38.6676C16.279 38.6652 16.1379 38.6575 15.9288 38.7183C15.7213 38.774 15.4719 38.9404 15.3495 39.099C15.1052 39.4286 15.1573 39.5331 15.1523 39.5642C15.1722 39.6158 15.2 39.5003 15.206 39.4449C15.2128 39.3909 15.3877 39.3344 15.598 39.3347C15.598 39.3347 15.598 39.3347 15.598 39.3347C15.5993 39.3347 15.6006 39.3347 15.602 39.3348C15.8139 39.3354 15.9804 39.3915 15.9736 39.4539C15.966 39.5209 15.9448 39.6418 15.9076 39.7014C15.8953 39.7277 15.851 39.7273 15.9235 39.6088C16.0082 39.4704 16.2401 39.4306 16.244 39.4264C16.2485 39.4243 16.2506 39.4219 16.2512 39.4191C15.7432 39.1814 15.1151 38.5379 14.6821 38.1611C14.1858 37.7409 13.7095 37.2872 13.1543 36.8555C13.0494 36.7743 12.9421 36.693 12.8191 36.6054C12.8307 36.6157 12.8468 36.6299 12.8712 36.6544C12.8834 36.6667 12.8978 36.6816 12.9151 36.7012C12.9344 36.7251 12.9427 36.7265 13.0127 36.8296C13.067 36.9239 13.1777 37.0711 13.1891 37.421C13.1896 37.5071 13.1796 37.6042 13.1535 37.7039C13.1241 37.8203 13.0648 37.9522 12.9905 38.0569C12.839 38.2731 12.6472 38.3856 12.5142 38.4409C12.2352 38.5463 12.1423 38.5179 12.1111 38.5243C12.0654 38.5246 12.032 38.5222 12.0051 38.5195C11.8254 38.494 11.8749 38.491 11.861 38.488C11.8627 38.4837 11.8992 38.4909 11.9299 38.497C11.999 38.5118 12.0813 38.5325 12.164 38.5529C12.331 38.5945 12.5074 38.638 12.6853 38.6776C13.1089 38.7723 13.5367 38.8824 13.9577 38.9998C14.0547 39.0273 14.141 39.0507 14.2469 39.0834C14.5094 39.1632 14.6988 39.212 14.9649 39.2801C15.0618 39.3004 15.2399 39.3473 15.3787 39.3603C15.4428 39.3692 15.5073 39.3756 15.5907 39.3714C15.6342 39.3686 15.6748 39.365 15.7415 39.3481C15.8537 39.3244 16.0587 39.2198 16.1468 39.0134C16.2324 38.7903 16.1895 38.7057 16.1798 38.6365C16.1625 38.5667 16.1395 38.5175 16.1173 38.4758C16.066 38.3841 16.0424 38.3627 16.015 38.3291C15.5812 37.8867 15.2359 37.689 14.8587 37.4011C14.1071 36.8531 13.382 36.3143 12.6695 35.7449C11.2452 34.6082 9.89355 33.3908 8.63672 32.0868C7.96 31.3803 8.05216 30.7499 7.61243 30.4805C7.50833 30.4156 7.39658 30.3444 7.27786 30.2631C5.9154 29.3697 3.84973 28.7686 3.08167 28.0661C2.97558 27.984 2.89745 27.9172 2.85245 27.8746ZM3.79678 23.8182C3.93326 23.0016 4.43955 21.9253 4.96043 21.0524C5.21219 20.6249 5.46302 20.2404 5.65163 19.9292C5.94526 19.4461 6.33441 19.2607 6.71617 19.0923C6.72021 19.0904 6.72424 19.0886 6.72827 19.0867C7.11164 18.9186 7.48819 18.7628 7.82411 18.336C8.1626 17.9059 8.47446 17.1994 8.83215 16.4944C8.83253 16.494 8.83291 16.4935 8.83329 16.493C9.18322 15.7966 9.19606 14.7441 9.61966 14.3488C9.90901 14.0788 10.1974 13.8523 10.4794 13.6622C10.5264 13.6131 10.6816 13.4985 10.7402 13.4641C10.9257 13.3973 11.1143 13.3436 11.297 13.3068C12.6349 13.0699 13.3925 13.5364 13.8659 13.85C14.9997 14.6915 16.0769 13.5196 17.225 14.6944C17.3611 14.9621 17.2045 15.7644 16.982 15.5494C16.9741 15.5434 16.9661 15.5375 16.9577 15.5316C16.879 15.4765 16.811 15.4321 16.7189 15.3985C16.5895 15.3743 16.4861 15.3789 16.3995 15.3831C16.1622 15.3911 14.5588 15.3224 13.952 14.8619C13.5409 14.5484 12.8434 14.7665 12.1187 15.1581C12.0164 15.215 11.9116 15.2774 11.7978 15.3478L12.0099 15.1867C11.795 15.4185 11.5547 15.6625 11.2792 15.9143C10.8927 16.2659 9.98071 16.4428 9.63755 17.1289C9.63659 17.1307 9.63563 17.1326 9.63467 17.1344C9.29575 17.8104 8.99773 18.4958 8.66633 18.9114C8.33113 19.3314 7.94481 19.4798 7.56414 19.6365C7.56034 19.638 7.55654 19.6394 7.55274 19.6409C7.18199 19.7944 6.81855 19.9579 6.54661 20.3989C6.36124 20.7003 6.11807 21.0691 5.87376 21.476C5.37393 22.298 4.88959 23.3016 4.7621 24.0706C4.75017 24.1395 4.52425 24.1406 4.25719 24.073C3.99031 24.0054 3.78421 23.8913 3.79678 23.8182ZM-2.1963 22.1559C-2.52209 18.8937 -0.776822 15.8588 1.75442 14.2172C2.18743 13.6245 2.83439 12.8481 3.50138 12.1349C3.50918 12.127 3.51698 12.1192 3.52478 12.1114C4.18394 11.404 4.85553 10.7568 5.3266 10.2993C5.65392 9.98083 5.96107 9.69877 6.24979 9.44888C6.53264 9.15409 7.465 8.46513 7.81743 8.25848C8.14068 8.09286 8.4987 7.92906 8.84956 7.79226C11.5243 6.8487 12.4081 7.17713 13.0489 7.4358C13.8361 7.85966 13.9869 7.8522 14.2613 7.82707C14.2688 7.82676 14.276 7.82649 14.283 7.82622C14.2834 7.82533 14.2838 7.82443 14.2842 7.82354C14.2918 7.80936 14.2986 7.80103 14.3021 7.79734C14.3093 7.78983 14.3155 7.78671 14.3178 7.78552C14.3231 7.78277 14.3277 7.78217 14.3293 7.78182C14.336 7.78042 14.3438 7.77987 14.3488 7.77994C14.3944 7.78067 14.5484 7.79772 14.6622 7.8305C14.7816 7.8638 14.8718 7.91275 14.9605 7.96774C14.9697 7.97339 14.9789 7.97904 14.988 7.9847C15.0688 8.03453 15.1622 8.0884 15.2835 8.14555C15.3589 8.18034 15.4305 8.43881 15.4425 8.72304C15.4544 9.00705 15.4035 9.20886 15.3296 9.17414C15.2026 9.11392 15.105 9.05646 15.0256 9.00623C15.0167 9.00056 15.0078 8.99488 14.9989 8.98921C14.9153 8.93647 14.8352 8.89481 14.7321 8.86461C14.5852 8.84555 14.469 8.85438 14.3706 8.86239C14.0929 8.88716 13.9212 8.89437 13.1177 8.44899C12.5282 8.19857 11.6899 7.89643 9.26927 8.73793C8.9495 8.86064 8.62212 9.00834 8.3234 9.15964C8.02183 9.33647 7.22402 9.926 6.98199 10.1783C6.70012 10.4203 6.39947 10.6942 6.07843 11.0046C5.61685 11.4499 4.96001 12.0779 4.31804 12.7608C4.31057 12.7689 4.3031 12.777 4.29563 12.785C3.64511 13.4746 3.01567 14.2211 2.59619 14.7908C0.942017 17.0364 0.195119 19.7899 -1.23031 22.4053C-1.32825 22.9402 -1.41971 23.4226 -1.49417 23.8715C-1.53348 24.1085 -1.56702 24.332 -1.59411 24.5514C-1.69172 25.3485 -1.69512 26.0422 -1.47319 26.7013C-1.51271 27.2093 -1.40826 28.58 -1.25454 29.0657C-1.09668 29.3438 -0.919547 29.5905 -0.725103 29.8097C-0.468914 30.1094 -0.0192938 30.8532 0.608904 31.5933C0.798282 31.8212 0.986161 32.0279 1.20353 32.257C1.72447 32.801 2.33201 33.3442 3.01343 33.8556C3.15588 33.9624 3.28656 34.0542 3.41153 34.1405C3.93704 34.4953 4.35005 34.7697 5.12903 35.5633C6.08695 36.5469 7.58236 38.1582 8.34881 39.0247C8.73258 39.4621 8.92717 39.7295 9.05634 39.9259C9.09213 39.9803 9.12217 40.0293 9.14993 40.0735C9.22293 40.1895 9.28546 40.2837 9.37461 40.3848C10.0087 41.1077 10.639 41.4586 11.4789 41.8561C11.53 41.8801 11.4279 42.0576 11.2565 42.2563C11.085 42.4549 10.9116 42.6031 10.8637 42.5822C10.0507 42.2114 9.40212 41.85 8.757 41.1184C8.6635 41.0129 8.59515 40.9105 8.52165 40.7936C8.49395 40.7498 8.46426 40.7028 8.42991 40.6509C8.30116 40.457 8.10729 40.192 7.72055 39.7545C6.94697 38.8858 5.42803 37.2615 4.44825 36.2607C3.65754 35.4593 3.2418 35.179 2.70475 34.8133C2.57595 34.7235 2.44026 34.628 2.29201 34.5158C1.58934 33.9841 0.954384 33.4121 0.408952 32.8369C0.181437 32.5947 -0.0177879 32.3727 -0.215018 32.1336C-0.89206 31.3257 -1.35192 30.5463 -1.57843 30.2837C-1.81353 30.0124 -2.02741 29.7023 -2.21618 29.3467C-2.39467 28.7827 -2.51594 27.1912 -2.47005 26.6014C-2.68031 25.9138 -2.67297 25.1883 -2.5728 24.3713C-2.54382 24.1367 -2.50803 23.8988 -2.4661 23.647C-2.38928 23.1857 -2.29523 22.6941 -2.1963 22.1559ZM15.2371 32.9474C15.3136 32.9622 15.2938 33.1684 15.195 33.4077C15.096 33.6468 14.9569 33.8291 14.8821 33.8142C14.4854 33.7358 14.1923 33.6905 13.8795 33.6309C13.7653 33.6096 13.6489 33.5847 13.4534 33.5391C13.33 33.5123 13.2524 33.4809 12.8255 33.4064C12.6564 33.3814 12.4492 33.3425 12.018 33.3486C11.9489 33.4038 11.2185 33.1557 9.73476 34.1007C9.00781 34.5469 8.1854 35.8045 8.08088 36.6978C7.92781 37.5595 8.07149 38.2401 8.21758 38.6916C8.52118 39.5731 8.89137 39.934 8.97125 40.0458C9.06522 40.1567 9.14362 40.2384 9.21178 40.3061C9.34768 40.44 9.44445 40.5203 9.52519 40.5854C9.59332 40.5959 9.69497 40.6546 9.79818 40.7298C9.81437 40.7417 9.83005 40.7534 9.84711 40.7665C10.4104 41.2021 11.1212 41.6266 11.804 41.9834C12.9391 42.5746 14.1098 43.0911 15.0116 43.3739C15.1491 43.4179 15.227 43.618 15.177 43.8241C15.1272 44.0299 14.9511 44.1599 14.7946 44.1109C13.7909 43.8004 12.5285 43.2541 11.3204 42.6688C10.5906 42.3127 9.82923 41.8911 9.24966 41.4606C9.23136 41.4471 9.21463 41.4352 9.19757 41.4232C9.09457 41.3514 8.99245 41.2952 8.93526 41.2983C8.84571 41.2259 8.73891 41.1368 8.59349 40.9961C8.52059 40.9252 8.43768 40.8409 8.33987 40.7309C8.28086 40.6629 8.27194 40.6567 8.15088 40.5043C8.02319 40.3397 7.87208 40.1319 7.69994 39.8183C7.42059 39.2182 6.68791 38.0209 7.36297 35.7936C7.77533 34.5355 8.78574 33.5418 9.55707 33.1137C10.3469 32.6598 10.9241 32.5503 11.3385 32.4802C11.8278 32.4141 11.8452 32.4308 11.9944 32.4225C12.1187 32.4196 12.2258 32.4213 12.3209 32.425C12.5108 32.4327 12.6543 32.4477 12.7747 32.4627C13.0351 32.4976 13.1075 32.515 13.2007 32.5323C13.2886 32.5496 13.3608 32.5656 13.4245 32.5804C13.5582 32.612 13.6033 32.6222 13.6762 32.6401C13.9243 32.7012 14.0339 32.7249 14.1625 32.7515C14.5169 32.8228 14.8189 32.8665 15.2371 32.9474Z" fill="black"/>
<path d="M21.3725 20.5009C22.6999 20.8748 24.4824 21.1261 25.6492 21.762C25.6654 21.7708 25.6817 21.7797 25.6978 21.7885C26.0101 21.9588 26.3106 22.146 26.6064 22.3537C26.665 22.3947 26.7225 22.4358 26.7787 22.4768C26.6377 22.4114 26.4644 22.3459 26.0227 22.0759C25.9096 22.0052 25.7762 21.9179 25.608 21.7936C25.5238 21.7312 25.4307 21.6592 25.326 21.5722C25.2736 21.5287 25.2183 21.4813 25.1598 21.4291C25.1305 21.403 25.1004 21.3757 25.0694 21.347C24.9412 21.228 24.7975 21.086 24.6363 20.905C24.135 20.268 22.5035 18.5578 23.1746 15.126C23.5353 13.5306 24.5454 12.2663 25.3524 11.6211C26.1789 10.9502 26.8288 10.6899 27.3078 10.5133C27.7902 10.3442 28.129 10.2774 28.3993 10.2307C28.5819 10.2014 28.5272 10.2109 28.5733 10.2039C28.601 10.2 28.6279 10.1964 28.6541 10.1931C28.7586 10.1797 28.8508 10.1705 28.9341 10.1635C29.5795 10.1172 29.7902 10.1506 29.9766 10.1597C30.1732 10.1759 30.179 10.1776 30.2382 10.1832C30.4285 10.203 30.4509 10.2042 30.4721 10.2016C30.5042 10.1959 30.4637 10.1762 30.42 10.1547C30.3674 10.1289 30.2914 10.097 30.2115 10.0642C29.4692 9.76244 28.3727 9.36487 26.9375 8.8855C25.5389 8.41491 23.9848 7.96244 23.2919 7.67717C23.2606 7.66493 23.2309 7.65324 23.2027 7.6421C23.1143 7.60709 23.0415 7.57777 22.9858 7.5548C22.9133 7.52573 22.8427 7.49621 22.878 7.50847C22.9012 7.51785 22.9373 7.52989 23.1028 7.60419C23.1935 7.64674 23.3006 7.69105 23.5947 7.85279C23.6053 7.85871 23.61 7.86132 23.6272 7.87105C23.6803 7.90104 23.7405 7.93591 23.8117 7.97904C23.9554 8.06733 24.1359 8.17792 24.4292 8.39996C24.7259 8.64608 25.1352 8.89945 25.8763 9.88812C26.2329 10.4018 26.7304 11.1457 27.0417 12.5048C27.3716 13.8164 27.2176 15.9792 26.2354 17.5709C24.0688 20.7965 22.0848 20.7133 21.338 20.9562C20.4802 21.0917 20.1008 21.0557 19.7956 21.0474C19.223 21.0126 19.0335 20.9652 18.8619 20.9367C18.7024 20.9065 18.6125 20.8853 18.5417 20.8687C18.4746 20.8525 18.5053 20.8599 18.4877 20.8556C18.4709 20.8515 18.4558 20.8477 18.4419 20.8442C18.2375 20.7914 18.2457 20.7908 18.2514 20.7939C18.2652 20.7992 18.3339 20.8218 18.4087 20.8469C18.6705 20.9347 19.0204 21.0519 19.3036 21.1448C19.922 21.3484 20.4696 21.5206 20.992 21.6797C22.0109 21.9895 22.7633 22.1893 23.2016 22.3069C25.701 22.9785 28.2839 23.9882 31.6994 25.4365C32.0118 25.5694 32.3258 25.7052 32.6539 25.8466C32.9181 25.9605 33.0494 26.2597 32.9522 26.5169C32.8547 26.7741 32.5679 26.8909 32.3062 26.7766C31.9879 26.6377 31.6816 26.5049 31.3789 26.3745C31.3776 26.3739 31.3762 26.3733 31.3748 26.3727C27.961 24.9071 25.4422 23.9121 23.0139 23.2513C22.563 23.1284 21.7964 22.922 20.7594 22.6039C20.2362 22.4435 19.6666 22.2626 19.0428 22.0562C18.7626 21.9638 18.4052 21.8435 18.1334 21.7519C18.0699 21.7304 17.988 21.7034 17.9759 21.6985C17.9696 21.6954 17.9578 21.6937 18.1327 21.7407C18.1559 21.7468 18.1833 21.7539 18.217 21.7624C18.2339 21.7666 18.2524 21.7712 18.273 21.7762C18.2661 21.7743 18.3303 21.7909 18.4471 21.8167C18.5643 21.8417 18.7094 21.8749 19.0169 21.9203C19.1748 21.9425 19.3723 21.9694 19.6993 21.9888C20.0395 22 20.4603 22.0432 21.4237 21.9002C22.2602 21.6245 24.5074 21.7914 27.0423 18.0635C28.1896 16.2165 28.3414 13.6981 27.9437 12.2072C27.568 10.6593 26.9945 9.83214 26.588 9.25971C25.7442 8.16135 25.2892 7.88559 24.957 7.61393C24.6293 7.36951 24.4285 7.24794 24.2685 7.15074C24.1958 7.10693 24.1007 7.05277 24.0828 7.04281C24.0713 7.03635 24.0602 7.0301 24.0493 7.02405C24.0275 7.01194 24.0069 7.00058 23.9872 6.98987C23.8306 6.90488 23.7306 6.8559 23.6506 6.81709C23.3506 6.67477 23.3002 6.66057 23.2491 6.63875C23.1627 6.60594 23.2441 6.64039 23.313 6.66805C23.3667 6.69031 23.4389 6.71948 23.5278 6.7547C23.5554 6.76565 23.5847 6.77716 23.6156 6.78922C24.2585 7.05782 25.8756 7.51372 27.3033 7.97781C28.7452 8.44387 29.8697 8.84137 30.5446 9.12484C30.615 9.15478 30.6702 9.18099 30.6803 9.1971C30.6805 9.19751 30.6806 9.19791 30.6807 9.19831C30.6782 9.20626 30.6822 9.2133 30.5488 9.1993C30.5093 9.19497 30.4579 9.18904 30.3838 9.1812C30.3467 9.17729 30.3037 9.1729 30.2521 9.16811C30.1887 9.16203 30.0487 9.14798 29.866 9.13864C29.6733 9.13064 29.4305 9.1159 28.9486 9.1473C28.8265 9.15598 28.6873 9.16855 28.5217 9.18975C28.4803 9.19507 28.4372 9.20095 28.3923 9.20751C28.3931 9.20746 28.2929 9.22169 28.1811 9.24129C28.0716 9.26042 27.952 9.28374 27.8193 9.31369C27.2898 9.44795 26.548 9.60405 25.3651 10.356C24.2435 11.0334 22.3935 12.9576 22.0649 15.5548C21.724 18.1254 22.6737 19.883 23.2419 20.7502C23.5488 21.2095 23.8242 21.5244 24.0597 21.7724C24.1762 21.8944 24.2923 22.0068 24.3826 22.0904C24.4071 22.113 24.431 22.1349 24.4545 22.156C24.5484 22.2407 24.6352 22.3147 24.7158 22.3809C25.3531 22.8914 25.6523 23.0331 25.8879 23.1672C26.1161 23.2892 26.2547 23.3514 26.3633 23.3997C26.3107 23.3602 26.257 23.3206 26.2024 23.2812C25.8925 23.0573 25.584 22.8621 25.2638 22.6868C25.2544 22.682 25.245 22.6771 25.2355 22.6722C24.0916 22.0463 22.3736 21.8227 21.1207 21.4688C20.8811 21.4002 20.7404 21.1299 20.8064 20.8617C20.8719 20.5935 21.1256 20.4307 21.3725 20.5009ZM109.433 36.1285C110.878 35.132 112.909 34.1612 114.709 33.1439C116.498 32.1567 118.116 31.0751 118.917 30.5179C118.936 30.5023 118.955 30.4869 118.974 30.4717C119.581 29.9769 120.097 29.3381 120.488 28.6491C120.867 27.9829 121.134 27.2776 121.328 26.5622C121.419 26.229 121.493 25.8924 121.556 25.5546C121.763 24.4397 121.845 23.3169 121.926 22.1683C122.051 20.2893 122.017 18.869 122.002 17.7053C121.981 17.053 121.905 16.4686 121.804 15.9384C121.533 14.5416 121.131 13.5393 120.771 12.7273C120.583 12.3102 120.397 11.9414 120.219 11.6046C120.218 11.604 120.218 11.6035 120.218 11.6029C119.54 10.3379 118.977 9.50063 118.564 8.66434C117.821 7.18626 117.17 6.0415 116.443 4.60209C115.443 2.60614 113.265 0.457785 111.602 -0.598616C111.511 -0.657429 111.417 -0.716752 111.323 -0.776888C110.114 -1.54183 108.631 -2.4541 106.463 -3.86047C105.839 -4.26325 105.241 -4.66226 104.679 -5.04223C104.333 -5.28313 103.98 -5.49894 103.626 -5.69107C102.203 -6.46264 100.785 -6.83486 99.5677 -7.01496C98.8951 -7.11414 98.2772 -7.15824 97.7057 -7.17181C96.2649 -7.2006 95.1067 -7.06189 94.1043 -6.85082C92.6488 -6.53667 91.4694 -6.18995 90.6609 -6.0098C90.1715 -5.89515 89.7237 -5.74248 89.3224 -5.57472C86.5201 -4.27696 85.568 -2.91813 84.6118 -1.97346C83.7184 -0.998029 83.1044 -0.257023 82.5784 0.332466C81.6561 1.37895 81.0372 1.95862 80.554 2.37076C80.3701 2.59451 80.2093 2.80688 80.0655 3.01031C80.0063 3.09415 79.95 3.17633 79.8964 3.25704C79.7258 3.51412 79.5824 3.75482 79.4591 3.98898C78.0496 6.79282 78.117 9.12378 78.2414 11.2445C78.277 11.7217 78.325 12.1943 78.3817 12.6698C78.5767 14.2538 78.9396 15.2166 79.2593 15.9397C79.4004 16.2536 79.536 16.518 79.6639 16.7621C79.6664 16.7665 79.6689 16.771 79.6714 16.7754C79.6892 16.8094 79.7064 16.8432 79.7239 16.8765C79.7371 16.9016 79.7514 16.9263 79.7645 16.9513C79.7733 16.9599 79.78 16.968 79.7854 16.9739C79.7897 16.9785 79.7929 16.9822 79.795 16.9846C79.7956 16.985 79.7962 16.9853 79.7968 16.9857C79.8343 17.0286 79.8572 17.0685 79.862 17.0767C79.8703 17.0909 79.8763 17.104 79.8796 17.1106C79.8973 17.1454 79.9165 17.1913 79.9289 17.2218C79.9606 17.3003 80.0139 17.4376 80.093 17.6458C80.1024 17.6666 80.1119 17.6873 80.1215 17.7079C80.3131 18.2467 81.0921 19.5681 81.4761 19.9919C81.5908 20.1042 81.7084 20.212 81.8371 20.3246C81.921 20.3982 82.0098 20.4737 82.1057 20.5535C82.1231 20.5679 82.1406 20.5822 82.1581 20.5965C82.4281 20.8191 82.7471 21.0717 83.1488 21.3733C83.5127 21.6469 83.6983 22.0725 83.5588 22.3503C83.4192 22.6272 82.9874 22.6416 82.5975 22.3544C82.1961 22.0579 81.8773 21.8117 81.59 21.5799C81.5717 21.5653 81.5534 21.5506 81.5351 21.5359C81.3584 21.3919 81.1897 21.2493 81.0223 21.098C80.9062 20.9932 80.791 20.8844 80.6753 20.7685C80.6655 20.7586 80.6556 20.7487 80.6458 20.7388C80.1985 20.2451 79.2912 18.7059 79.068 18.0783C79.0384 18.0115 79.0094 17.9425 78.9827 17.8769C78.9223 17.7474 78.8457 17.6014 78.7518 17.4235C78.733 17.3878 78.7142 17.3506 78.6942 17.3127C78.5659 17.0692 78.4153 16.7802 78.2596 16.4354C77.8997 15.6229 77.4883 14.5414 77.2663 12.7326C77.2097 12.2543 77.1606 11.7716 77.1242 11.2754C77.004 9.03297 76.8705 6.25728 78.7319 2.9376C78.7658 2.88013 78.8003 2.82321 78.8353 2.76675C79.0493 2.42205 79.283 2.0951 79.5478 1.76581C79.5598 1.75573 79.5718 1.7456 79.5838 1.73543C80.099 1.30379 80.6905 0.79571 81.753 -0.411736C82.2723 -0.993371 82.8833 -1.73041 83.8072 -2.73692C84.8029 -3.70814 85.7723 -5.14221 88.8899 -6.59028C89.3411 -6.77895 89.8478 -6.95189 90.4044 -7.08211C91.1544 -7.24532 92.336 -7.58701 93.8187 -7.90385C94.907 -8.13104 96.2077 -8.28462 97.7851 -8.24248C98.3871 -8.22459 99.0325 -8.17588 99.719 -8.07315C101.041 -7.87519 102.588 -7.46511 104.141 -6.62143C104.533 -6.40871 104.922 -6.16968 105.304 -5.90318C105.84 -5.54019 106.409 -5.16203 107.002 -4.77902C109.155 -3.38158 110.617 -2.48274 111.838 -1.7115C111.88 -1.68502 111.922 -1.65847 111.965 -1.63186C112.017 -1.59853 112.069 -1.56534 112.12 -1.53231C113.917 -0.391825 116.282 1.91936 117.411 4.1759C118.119 5.58451 118.755 6.70342 119.52 8.22809C119.888 8.97903 120.391 9.71823 121.089 11.0036C121.28 11.3602 121.493 11.7806 121.71 12.2589C122.096 13.1275 122.532 14.2022 122.83 15.7289C122.938 16.3014 123.022 16.9353 123.047 17.6478C123.06 18.8246 123.098 20.2736 122.967 22.2477C122.884 23.4001 122.804 24.5262 122.587 25.713C122.519 26.0822 122.437 26.4579 122.333 26.8404C122.133 27.5752 121.852 28.3458 121.423 29.1166C120.996 29.8863 120.406 30.6506 119.679 31.2646C119.609 31.316 119.537 31.3659 119.465 31.4144C118.701 31.9407 117.043 33.0471 115.208 34.0583C113.364 35.0961 111.422 36.0303 110.117 36.9382C109.981 37.0331 109.843 37.1272 109.705 37.2206C108.513 38.027 107.244 38.7653 106.248 39.5698C105.431 40.4417 104.357 41.1703 103.108 41.7354C102.496 42.0124 101.842 42.2505 101.157 42.4484C95.0152 43.8787 89.9777 42.3906 86.0638 41.9503C85.9928 41.9408 85.9219 41.9314 85.8511 41.9219C83.866 41.6579 82.0944 41.4412 80.5601 41.285C79.8242 41.2098 79.1424 41.1481 78.5207 41.0992C75.9777 40.9001 74.1827 40.6665 73.2918 40.5519C73.2133 40.5416 73.1419 40.5321 73.0777 40.5235C73.0204 40.5158 72.9685 40.5093 72.9228 40.5029C72.2379 40.4082 71.6283 40.351 70.9893 40.284C70.9544 40.2803 70.9195 40.2767 70.8846 40.273C70.2098 40.2008 69.5017 40.1146 68.676 39.9487C67.259 39.6634 65.9652 39.3761 64.7677 39.0894C63.8097 38.8598 62.9126 38.6297 62.067 38.3985C61.6981 38.2981 61.3308 38.1959 60.9837 38.098C60.5972 37.9888 60.2298 37.8822 59.8657 37.7756C59.8647 37.7752 59.8636 37.7749 59.8625 37.7745C58.281 37.3108 56.8953 36.8707 55.603 36.4066C53.2471 35.5572 51.6568 34.9954 50.4096 34.5688C50.0178 34.4342 49.6586 34.3113 49.3172 34.1933C48.5822 33.9393 47.9371 33.7098 47.287 33.4436C46.06 32.9405 44.9133 32.4992 43.7788 32.0382C43.6784 31.9974 43.5776 31.9556 43.4756 31.9137C42.8131 31.6415 42.1447 31.3562 41.4755 31.0465C40.8986 30.7791 40.3239 30.4939 39.7262 30.1665C39.428 30.003 39.2831 29.6574 39.4137 29.4075C39.542 29.1564 39.8904 29.0908 40.1842 29.2512C40.7773 29.5753 41.3522 29.8591 41.9321 30.126C42.5565 30.4131 43.1903 30.6832 43.8218 30.942C43.9223 30.9832 44.0261 31.0251 44.1259 31.0655C45.2469 31.52 46.4044 31.9663 47.6449 32.4736C48.2677 32.7279 48.8718 32.9424 49.5881 33.1896C49.9304 33.3077 50.2983 33.4329 50.708 33.5733C51.9661 34.0026 53.567 34.5659 55.9293 35.4161C57.1972 35.8707 58.5548 36.3022 60.1209 36.7613C60.4843 36.8678 60.851 36.973 61.2391 37.0827C61.5992 37.1843 61.9786 37.2897 62.3618 37.394C63.1942 37.6212 64.0784 37.8479 65.0233 38.0744C66.1992 38.356 67.4702 38.6385 68.8615 38.9192C69.6315 39.0742 70.2939 39.1561 70.9573 39.2275C70.9945 39.2316 71.0317 39.2357 71.0689 39.2398C71.6941 39.3058 72.3294 39.3653 73.0435 39.4644C73.139 39.4776 73.2608 39.4948 73.4075 39.5141C74.2892 39.628 76.0713 39.8606 78.5923 40.0585C79.2203 40.108 79.9075 40.1702 80.6477 40.2457C82.1965 40.4033 83.9797 40.6217 85.9703 40.8866C85.9897 40.8894 86.0091 40.8921 86.0285 40.8949C90.2203 41.4571 92.7411 41.733 94.7063 41.5569C96.2562 41.4187 97.4651 41.3681 98.5133 41.3036C98.7157 41.2912 98.9037 41.2777 99.0877 41.2637C99.7725 41.2112 100.369 41.1444 100.963 41.0155C101.046 40.9962 101.128 40.9756 101.211 40.9535C101.819 40.7901 102.357 40.6055 102.857 40.3932C103.793 39.9946 104.596 39.5027 105.438 38.8307C106.531 37.9591 107.89 37.1692 109.031 36.4019C109.033 36.4008 109.035 36.3996 109.036 36.3985C109.171 36.3079 109.304 36.2178 109.433 36.1285ZM88.7064 24.0237C89.0628 24.1936 89.2553 24.5467 89.1359 24.8282C89.0161 25.1093 88.6142 25.2061 88.2379 25.0274C87.3449 24.6031 86.4482 24.1122 85.5662 23.5384C85.1947 23.2971 85.0403 22.8825 85.2169 22.6329C85.3941 22.3828 85.8169 22.3793 86.1661 22.6061C87.0015 23.1503 87.854 23.618 88.7064 24.0237ZM106.384 31.7532C106.619 31.606 106.935 31.6793 107.096 31.919C107.256 32.1585 107.193 32.4792 106.95 32.6322C106.821 32.7129 106.611 32.8499 106.323 33.029C105.488 33.547 103.985 34.4294 101.893 35.235C101.381 35.4322 100.835 35.6243 100.257 35.8043C97.2684 36.6974 93.524 36.9038 89.8051 36.8097C89.1762 36.7919 88.6112 36.7768 88.075 36.762C86.0344 36.7086 84.299 37.123 80.926 36.941C80.5114 36.9196 80.0739 36.8903 79.6089 36.8521C79.3447 36.8304 79.0791 36.8092 78.8171 36.7889C74.4366 36.4461 70.1371 35.6555 65.9279 34.4809C65.0942 34.2471 64.2629 33.9963 63.4375 33.7282C56.7698 31.5133 50.4015 28.8356 44.1356 25.6844C43.2046 25.207 42.2769 24.7105 41.3603 24.1798C37.1542 21.9192 32.1859 20.1753 27.3797 18.5925C25.9449 18.1297 24.537 17.6691 23.0978 17.197C22.4048 16.9704 21.6659 16.7276 20.9635 16.5004C20.6385 16.3958 20.243 16.2678 19.9246 16.1695C19.83 16.14 19.7424 16.1134 19.6883 16.0981C19.6445 16.0849 19.6095 16.077 19.6683 16.0926C19.6596 16.0898 19.7008 16.1037 19.8275 16.1244C19.9075 16.1318 19.9707 16.1623 20.3236 16.143C20.5109 16.1054 20.8006 16.1666 21.4678 15.6989C21.7889 15.4646 22.1779 14.9445 22.2652 14.3707C22.3622 13.7981 22.2141 13.3509 22.0918 13.0909C21.8252 12.5719 21.6451 12.475 21.5347 12.3663C21.4218 12.2722 21.3562 12.2308 21.3046 12.1974C21.187 12.125 21.2079 12.1404 21.1917 12.1306C21.1711 12.1192 21.1546 12.1106 21.1407 12.1034C21.0863 12.0756 21.066 12.067 21.0527 12.0608C21.0279 12.0497 21.0409 12.0552 21.0588 12.062C21.0935 12.0747 21.193 12.1117 21.2773 12.142C21.3464 12.1666 21.4282 12.1958 21.5226 12.2293C21.5538 12.2404 21.5863 12.2519 21.6202 12.2639C23.5125 12.8857 25.7788 13.4077 27.8931 13.9222C28.21 13.9979 28.556 14.083 28.9044 14.1691C29.0797 14.2123 29.2584 14.2564 29.4275 14.2972C29.5116 14.3175 29.6004 14.3383 29.6611 14.3523C29.6975 14.3606 29.7251 14.3664 29.717 14.3661C29.6879 14.3648 29.7575 14.3648 29.5275 14.3516C29.4653 14.3503 29.3852 14.3464 29.219 14.3635C29.1504 14.3787 29.2377 14.3357 28.8044 14.449C28.6166 14.5122 28.3378 14.5975 27.958 14.9285C27.58 15.2328 27.1652 15.9969 27.2103 16.6719C27.3397 18.0079 27.9773 18.2383 27.9564 18.287C28.0088 18.334 28.0536 18.37 28.0929 18.4001C28.3922 18.6161 28.4457 18.6142 28.503 18.6458C28.4275 18.6092 28.3499 18.5721 28.2702 18.5343C24.5565 16.7426 18.9544 15.2373 17.6377 15.2318C17.3853 15.2108 17.1899 14.9839 17.1895 14.7098C17.1895 14.708 17.1895 14.7063 17.1895 14.7046C17.1876 14.4285 17.4155 14.2107 17.6975 14.2334C19.1668 14.2522 24.8224 15.7731 28.6696 17.6173C28.753 17.6566 28.8343 17.6955 28.9135 17.7338C28.8901 17.7207 28.8646 17.7221 28.7109 17.6135C28.6907 17.5985 28.6678 17.5806 28.641 17.5573C28.6553 17.547 28.4891 17.5144 28.2851 17.0391C28.1881 16.8066 28.1669 16.3512 28.3564 16.0184C28.5384 15.6841 28.7777 15.5463 28.9196 15.4752C29.2165 15.3437 29.3085 15.367 29.3086 15.3599C29.405 15.3485 29.45 15.3505 29.4841 15.3508C29.6055 15.3567 29.5603 15.3559 29.5657 15.3547C29.5452 15.3503 29.5172 15.3441 29.4728 15.3343C29.4006 15.3179 29.3078 15.296 29.2225 15.2753C29.0471 15.2327 28.8718 15.1887 28.6947 15.1443C28.3466 15.0568 28.0093 14.9717 27.6942 14.8941C25.5413 14.353 23.303 13.8135 21.2962 13.153C21.2618 13.1408 21.2288 13.1291 21.1971 13.1179C21.1021 13.0841 21.019 13.0545 20.948 13.0291C20.8636 12.9988 20.7574 12.9595 20.7114 12.9423C20.6936 12.9356 20.6663 12.9246 20.6692 12.926C20.6703 12.9267 20.6759 12.9291 20.697 12.9396C20.7094 12.946 20.7177 12.9497 20.7524 12.9694C20.7918 12.9962 20.8312 13.0014 20.9948 13.154C21.0663 13.2473 21.2535 13.3473 21.3426 13.8712C21.3809 14.1285 21.29 14.5044 21.1045 14.7321C20.923 14.9658 20.7316 15.0612 20.6052 15.1145C20.1195 15.2698 20.1082 15.1862 20.0263 15.1963C19.9661 15.1894 19.9427 15.1839 19.9244 15.1803C19.8407 15.1602 19.917 15.1779 19.9574 15.1906C20.0263 15.2104 20.1058 15.2344 20.2089 15.2665C20.5285 15.3649 20.9263 15.4933 21.2506 15.5972C21.9529 15.8234 22.6846 16.0624 23.3761 16.2868C24.8067 16.7526 26.2117 17.2076 27.6388 17.6624C32.5081 19.2527 37.4625 20.8437 41.9813 23.0881C42.8853 23.5762 43.8081 24.0342 44.7362 24.4736C50.9875 27.3759 57.4313 29.7773 64.0157 31.7579C64.8211 31.9949 65.6325 32.2164 66.446 32.4231C70.5543 33.4616 74.7469 34.1619 78.9754 34.4868C79.2507 34.5076 79.5299 34.5297 79.8064 34.5525C80.2716 34.5909 80.7063 34.6352 81.1161 34.6831C84.4749 35.0848 86.0415 35.6643 88.075 35.7181C88.6103 35.7329 89.1773 35.7476 89.8087 35.7656C93.5459 35.8643 97.3184 35.6339 100.114 34.7524C100.675 34.5734 101.204 34.3829 101.698 34.1882C103.591 33.4421 104.963 32.64 105.751 32.1526C106.04 31.9738 106.252 31.8358 106.384 31.7532ZM116.002 25.046C116.326 23.3445 116.196 20.7548 116.1 18.0305C116.093 17.7411 116.062 17.4366 116.007 17.123C115.837 16.1307 115.447 15.0843 114.982 14.1151C114.17 12.4298 113.137 10.9276 112.253 9.77919C110.87 8.00307 110.056 6.7995 109.23 5.60119C109.221 5.58844 109.212 5.5757 109.203 5.56295C108.369 4.37431 107.496 3.18433 105.731 1.62184C104.718 0.729049 103.405 -0.274207 101.928 -1.25101C101.743 -1.37306 101.551 -1.48295 101.351 -1.58085C100.388 -2.05881 99.26 -2.2208 98.1373 -2.16203C98.1348 -2.16205 98.1324 -2.16206 98.1299 -2.16208C95.9571 -2.04788 93.976 -0.995137 92.0299 -0.285939C91.9033 -0.230809 91.7793 -0.165409 91.6574 -0.09218C91.2529 0.150686 90.8672 0.48185 90.4941 0.804512C88.8315 2.30255 87.5696 4.2886 86.4164 5.89523C86.3481 5.9875 86.2852 6.08284 86.2268 6.18192C84.8266 9.28057 86.0308 12.7129 86.0589 14.3842C86.1005 14.7766 86.1611 15.1683 86.2355 15.5583C86.2439 15.5818 86.2778 15.6394 86.2946 15.6579C86.3535 15.7465 86.4145 15.834 86.4773 15.9202C88.3939 18.5523 91.8074 19.7053 94.8453 20.6632C94.8801 20.6736 94.9084 20.6824 94.9364 20.6912C96.0804 21.0518 97.2089 21.4615 98.2699 21.9985C98.7212 22.3852 97.7023 23.0417 96.7942 22.6088C96.7611 22.595 96.728 22.5812 96.695 22.5675C96.3797 22.4374 96.1025 22.3266 95.7068 22.1979C95.2949 22.0834 94.956 21.9986 94.6523 21.9256C94.6231 21.9186 94.594 21.9116 94.5652 21.9047C94.5615 21.9039 94.5503 21.9012 94.5466 21.9004C94.4507 21.8765 94.3578 21.8532 94.2669 21.83C93.4188 21.6984 87.8439 19.8134 85.6857 16.6716C85.6137 16.5777 85.5447 16.4843 85.4787 16.3917C85.3998 16.3046 85.2397 16.033 85.2003 15.9222C85.0866 15.3914 85.0025 14.9155 84.9613 14.53C84.8732 13.6671 84.5606 12.5739 84.2224 11.1132C83.9508 9.66595 83.3396 7.74112 84.3076 5.2952C84.3837 5.12315 84.4701 4.95248 84.568 4.78396C85.6112 3.04672 86.7055 0.946188 88.8771 -1.03568C89.3707 -1.45897 89.9924 -1.87999 90.7791 -2.15443C91.0182 -2.23689 91.2729 -2.30371 91.5371 -2.34631C93.4288 -2.6158 95.6991 -3.11477 98.0648 -3.23425C98.0744 -3.23465 98.0839 -3.23505 98.0935 -3.23543C99.3504 -3.29536 100.695 -3.10702 101.867 -2.51231C102.104 -2.39323 102.333 -2.25968 102.553 -2.11204C104.046 -1.11995 105.38 -0.0992165 106.416 0.814294C108.273 2.46015 109.199 3.72562 110.059 4.95123C110.067 4.96326 110.075 4.97531 110.083 4.98735C110.917 6.1973 111.704 7.36402 113.073 9.12149C114.001 10.3288 115.079 11.8914 115.941 13.688C116.423 14.6997 116.839 15.8048 117.034 16.9133C117.097 17.2711 117.135 17.6261 117.145 17.9729C117.233 20.6692 117.385 23.2864 117.03 25.2188C116.981 25.4965 116.697 25.6608 116.418 25.5905C116.138 25.5201 115.96 25.2823 116.002 25.046ZM109.651 23.6892C109.48 23.2322 109.212 20.9372 108.923 18.4259C108.91 18.5331 108.904 18.5804 108.889 18.5777C108.816 18.3603 107.575 15.9332 106.067 13.9358C104.543 11.8333 102.731 9.61864 100.855 7.46654C99.9453 6.66798 98.8023 5.7063 97.5622 4.76669C97.6286 4.80977 97.7009 4.85084 97.773 4.88578C98.1479 5.07148 98.3662 5.03169 98.0659 5.03768C98.0571 5.03759 98.048 5.03756 98.0384 5.03759C97.3955 5.03579 95.9048 5.44899 93.5458 6.05165C93.8046 5.98882 94.0185 5.91083 94.1832 5.83854C94.7455 5.57749 94.7766 5.46753 94.7248 5.52208C94.286 5.84527 92.9489 7.74124 91.9922 9.24749C92.0542 9.13475 92.1066 9.02345 92.1493 8.91835C92.4398 8.14312 92.2768 7.98083 92.2544 8.19921C92.2128 8.40759 92.2272 8.87204 92.2764 9.3507C92.377 10.3307 92.5616 11.3817 92.6286 12.2071C92.6618 12.5971 92.7021 12.9509 92.7444 13.2698L91.4243 11.0439C91.4383 11.0922 91.4532 11.1383 91.4688 11.1824C91.701 11.8009 91.9747 12.0007 92.3145 12.2408C92.3267 12.2496 92.3389 12.2584 92.3512 12.2671C92.3525 12.2669 92.3538 12.2667 92.3551 12.2665C92.3788 12.2652 92.3966 12.2672 92.4054 12.2687C92.4233 12.2719 92.4362 12.2772 92.441 12.2791C92.4522 12.2836 92.4607 12.2889 92.4638 12.2907C92.4763 12.2979 92.4902 12.3071 92.4989 12.3134C92.5785 12.3722 92.8335 12.5683 93.0541 12.7365C93.2785 12.909 93.4419 13.0539 93.6217 13.2082C93.6399 13.2239 93.6583 13.2396 93.6767 13.2553C93.842 13.3941 94.0285 13.5446 94.3288 13.7334C94.511 13.848 94.5681 14.1635 94.444 14.441C94.3202 14.7182 94.051 14.8469 93.8536 14.7254C93.5148 14.5159 93.3004 14.3463 93.1203 14.1983C93.1004 14.1818 93.0806 14.1652 93.061 14.1486C92.8736 13.9916 92.7149 13.8564 92.4927 13.6896C92.1603 13.4707 91.9259 13.3201 91.7185 13.1795C91.3225 12.9027 90.9828 12.6563 90.6538 11.956C90.631 11.9054 90.6087 11.8525 90.5871 11.797L91.6821 13.6433C91.6292 13.2674 91.5789 12.8445 91.5392 12.3712C91.4767 11.5843 91.2967 10.5645 91.1861 9.5475C91.1323 9.04824 91.1078 8.54745 91.1435 8.24761C91.164 7.94045 91.3144 7.93387 91.138 8.45108C91.1116 8.52084 91.0781 8.59632 91.0375 8.6735C92.0082 7.15753 93.3239 5.23869 93.9799 4.70345C94.0893 4.5998 94.1404 4.63675 93.7509 4.82334C93.6367 4.87445 93.4819 4.93229 93.2894 4.97983C95.5841 4.40288 97.1704 3.95792 98.0335 3.96519C98.0473 3.96485 98.0609 3.96459 98.074 3.96442C98.4966 3.96407 98.4736 4.03552 98.2872 3.95652C98.253 3.94278 98.2172 3.92531 98.1855 3.90764C99.4532 4.86963 100.615 5.84872 101.539 6.66122C105.777 10.2918 110.542 15.5747 110.948 18.157C110.962 18.252 110.96 18.308 110.952 18.3141C111.06 20.7733 111.046 23.2075 110.674 23.887C110.662 24.0338 110.654 24.0117 110.771 23.7929C110.86 23.6293 111.04 23.3497 111.316 23.0775C111.061 23.3487 110.792 23.6063 110.515 23.8513C108.334 25.7389 105.949 26.8217 103.737 28.1813C103.33 28.4243 102.316 28.8435 100.775 29.2493C100.45 29.3345 100.102 29.4184 99.733 29.4986C99.6277 29.5215 99.5206 29.5441 99.4118 29.5663C99.0304 29.6549 98.5115 29.734 97.9061 29.7928C96.1056 29.9702 93.5963 29.9668 90.6967 29.8905C90.0865 29.8747 89.5381 29.8612 89.0104 29.8472C86.9374 29.7951 85.2662 29.7209 81.5617 29.3918C81.2241 29.3627 80.8737 29.3325 80.4992 29.3006C80.1307 29.2693 79.7405 29.2367 79.3385 29.2043C75.9895 28.9465 71.4816 28.1341 67.7975 27.0546C67.0236 26.8314 66.2838 26.6006 65.5965 26.3709C64.6506 26.056 63.7769 25.7457 63.0219 25.4671C60.8645 24.6675 59.6633 24.1366 58.8205 23.7558C58.5862 23.6492 58.3806 23.553 58.1918 23.4649C57.6993 23.2349 57.3172 23.0548 56.8099 22.8385C53.463 21.3941 50.9621 20.4856 47.4359 19.0316C47.1265 18.9018 46.8146 18.7695 46.4957 18.6316C46.2486 18.5247 46.14 18.2255 46.2559 17.9684C46.3706 17.7105 46.6573 17.5862 46.902 17.6913C47.2362 17.8348 47.567 17.9742 47.8931 18.1101C51.3446 19.5248 53.8581 20.4382 57.204 21.8777C57.7298 22.1014 58.1357 22.2929 58.6334 22.5247C58.8182 22.6107 59.0152 22.7022 59.2362 22.8025C60.059 23.1735 61.2385 23.694 63.3657 24.4816C64.1071 24.7549 64.9649 25.0593 65.8909 25.3677C66.5651 25.5933 67.2918 25.8204 68.0529 26.0404C71.6748 27.1043 76.1247 27.9091 79.4101 28.1628C79.8107 28.195 80.1995 28.2275 80.5663 28.2587C80.9487 28.2912 81.306 28.3221 81.6493 28.3516C85.3173 28.6775 86.9539 28.7512 89.0113 28.8035C89.539 28.8176 90.0891 28.8305 90.7012 28.8466C93.5912 28.9238 96.0807 28.9256 97.8155 28.7541C98.4213 28.6954 98.9274 28.6154 99.2715 28.5304C99.3539 28.5133 99.4352 28.4961 99.5155 28.4786C99.8993 28.3952 100.255 28.3084 100.583 28.2213C102.035 27.8327 102.926 27.4586 103.258 27.2606C105.466 25.9039 107.843 24.8052 109.862 23.0356C110.11 22.8152 110.347 22.5859 110.57 22.3477C110.21 22.7065 109.968 23.0809 109.838 23.3267C109.671 23.6463 109.654 23.758 109.651 23.6892ZM30.1199 11.7088C30.4124 11.7954 30.5904 12.0744 30.5173 12.331C30.4452 12.5878 30.154 12.7263 29.8616 12.6384C28.3306 12.18 27.2329 11.8648 26.3719 11.6178C24.7765 11.1611 23.9985 10.9398 22.8527 10.5479C22.5062 10.4299 22.1474 10.308 21.7731 10.1862C21.6446 10.145 21.6238 10.1368 21.4156 10.0742C21.3679 10.0601 21.3187 10.0458 21.2473 10.0268C21.2292 10.022 21.2096 10.0169 21.1872 10.0112C21.1189 10.0104 21.3531 9.99627 20.4253 9.89026C20.2731 9.88247 20.0823 9.86722 19.7005 9.90627C19.3211 9.99078 18.6887 9.90849 17.4401 10.8987C16.84 11.394 16.1951 12.3963 16.0698 13.4205C15.9264 14.4452 16.1832 15.2433 16.4051 15.7279C16.8862 16.694 17.2332 16.9052 17.4474 17.1188C17.8743 17.4766 18.0191 17.531 18.1331 17.6023C18.1557 17.6151 18.1763 17.6264 18.1953 17.6367C18.2709 17.6775 18.323 17.7034 18.3665 17.7246C18.532 17.8039 18.5915 17.8266 18.6605 17.8556C18.7355 17.8864 18.7567 17.8945 18.7828 17.905C18.8778 17.9428 19.0225 17.9977 19.0981 18.0263C19.1781 18.0566 19.266 18.0894 19.363 18.1254C19.3974 18.1382 19.4328 18.1513 19.4695 18.1649C22.0342 19.0553 23.9617 19.6603 25.9878 20.2664C26.4228 20.3939 26.852 20.5155 27.2884 20.6313C27.5024 20.6881 27.7296 20.7463 27.9643 20.8023C28.0863 20.8313 28.2168 20.8613 28.3635 20.8918C28.468 20.9126 28.5105 20.9229 28.7033 20.9541C28.7496 20.9614 28.8008 20.9689 28.8635 20.9769C28.9095 20.9817 29.0295 21.0015 29.2992 21.0122C29.44 21.0154 29.6127 21.0229 29.9519 20.9873C29.9949 20.9825 30.0409 20.9768 30.0907 20.9696C30.0702 20.9729 30.2542 20.946 30.3788 20.9185C30.5188 20.8886 30.6834 20.8477 30.8866 20.7788C31.2838 20.6315 31.8909 20.421 32.6474 19.6578C33.4166 18.9426 34.0436 17.3084 33.8445 16.1045C33.6851 14.892 33.2142 14.2636 32.9234 13.8764C32.7689 13.6815 32.6338 13.5415 32.5165 13.4286C32.4023 13.3208 32.4353 13.353 32.3961 13.3173C32.2942 13.2266 32.2064 13.1563 32.1289 13.0973C31.5377 12.6713 31.3993 12.6538 31.2379 12.5695C31.1353 12.5225 31.0322 12.4762 30.9289 12.4308C27.6109 11.0098 25.0577 10.3632 23.463 9.92644C23.1452 9.84199 22.9368 9.55886 23.0005 9.28997C23.0639 9.02142 23.3819 8.87035 23.7071 8.95646C25.3339 9.4024 27.9072 10.0501 31.3283 11.514C31.4351 11.561 31.5418 11.6089 31.6483 11.6578C31.8375 11.7554 32.0072 11.7839 32.6934 12.2708C32.7832 12.3378 32.8844 12.4172 33.0017 12.5185C33.031 12.5439 33.0613 12.5707 33.0927 12.5991C33.1084 12.6133 33.1244 12.6279 33.1407 12.643C33.1954 12.6936 33.2759 12.771 33.3514 12.8492C33.6526 13.1756 34.0904 13.6309 34.5015 14.6393C34.9215 15.5902 35.0986 17.4853 34.3304 18.9696C33.5906 20.4568 32.5306 21.1095 31.9015 21.4345C31.2392 21.7607 30.8184 21.8469 30.5003 21.914C30.4211 21.9294 30.3486 21.9418 30.2816 21.952C30.2295 21.9599 30.2396 21.9583 30.219 21.9612C30.1894 21.9654 30.1609 21.9692 30.1334 21.9726C29.699 22.0238 29.4802 22.0152 29.3026 22.0125C28.9688 22.0019 28.7999 21.9753 28.752 21.9705C28.6772 21.9611 28.6168 21.9523 28.563 21.944C28.3323 21.907 28.2945 21.8969 28.1801 21.8743C28.0192 21.841 27.8846 21.8098 27.7609 21.7803C27.5188 21.7222 27.2949 21.6641 27.0787 21.606C26.6437 21.489 26.2191 21.3663 25.7889 21.2374C23.7306 20.608 21.8325 19.9857 19.1456 19.0534C19.1085 19.0397 19.0726 19.0264 19.0378 19.0135C18.94 18.9772 18.851 18.9439 18.7693 18.9131C18.6946 18.8849 18.5438 18.8277 18.4417 18.7872C18.4016 18.7694 18.3096 18.7417 17.9941 18.5951C17.9479 18.5731 17.893 18.5465 17.8164 18.5065C17.778 18.4864 17.7339 18.4629 17.6803 18.4329C17.6937 18.4403 17.589 18.3824 17.4896 18.3206C17.3834 18.2541 17.251 18.1709 17.0419 18.0095C16.831 17.8334 16.5419 17.6409 16.043 16.9751C15.801 16.6305 15.4773 16.1423 15.245 15.2799C15.0094 14.446 14.9828 13.0812 15.5382 11.9041C16.7964 9.45524 18.4642 9.24576 19.0432 9.05835C19.7297 8.91437 20.0375 8.93745 20.2827 8.93706C20.7436 8.95379 20.8968 8.99122 21.0382 9.01272C21.2824 9.05631 21.4164 9.09438 21.3926 9.08759C21.4215 9.0947 21.4464 9.10108 21.4689 9.10697C21.558 9.13035 21.6152 9.14695 21.6693 9.16276C21.7838 9.19656 21.8419 9.21515 21.8909 9.23049C21.9433 9.24703 21.9969 9.26419 22.0533 9.28243C22.4397 9.40783 22.7932 9.52772 23.1437 9.64663C24.2625 10.0277 24.9915 10.2342 26.5659 10.6816C27.4215 10.9241 28.544 11.2428 30.1199 11.7088Z" fill="black"/>
</svg>
