<svg width="119" height="42" viewBox="0 0 119 42" fill="none" xmlns="http://www.w3.org/2000/svg">
<path d="M101.497 41.8782C101.265 41.9328 101.021 41.893 100.818 41.7675C100.616 41.6421 100.471 41.4414 100.417 41.2094C100.362 40.9775 100.402 40.7333 100.527 40.5307C100.653 40.3281 100.853 40.1837 101.085 40.1291C102.176 39.8666 103.353 39.5389 104.311 39.1586C104.332 39.1495 104.354 39.1397 104.37 39.1319C104.366 39.1337 104.358 39.1371 104.34 39.1469C104.324 39.1564 104.343 39.1432 104.279 39.1832C104.251 39.2029 104.214 39.2249 104.14 39.2974C104.103 39.3355 104.055 39.386 103.997 39.4872C103.968 39.5382 103.937 39.6033 103.913 39.6901C103.871 39.8268 103.859 40.0802 103.958 40.2921C104.181 40.736 104.478 40.7699 104.578 40.8039C104.697 40.8295 104.75 40.8258 104.791 40.8262C104.826 40.8254 104.836 40.8242 104.852 40.8229C104.881 40.8203 104.897 40.8179 104.908 40.8161C104.933 40.8119 104.929 40.8123 104.934 40.8114C104.943 40.8098 104.924 40.8148 104.91 40.8191C104.876 40.8291 104.836 40.8419 104.797 40.855C104.715 40.8819 104.631 40.9118 104.545 40.9429C104.376 41.0046 104.204 41.0713 104.033 41.1383C103.862 41.2054 103.691 41.2737 103.521 41.3397C103.437 41.3728 103.351 41.4057 103.269 41.4373C103.201 41.4631 103.057 41.5191 103.096 41.5041C103.058 41.5218 103.022 41.5384 102.988 41.5539C102.88 41.6026 102.754 41.66 102.654 41.7062C102.619 41.7222 102.592 41.7348 102.572 41.7439C102.563 41.7484 102.531 41.7629 102.533 41.7621C102.533 41.7621 102.533 41.7621 102.533 41.762C102.533 41.7619 102.534 41.7618 102.535 41.7613C102.536 41.7607 102.535 41.7614 102.543 41.7575C102.548 41.7549 102.541 41.7587 102.575 41.7414C102.596 41.7268 102.566 41.7563 102.713 41.6532C102.739 41.6329 102.768 41.6118 102.829 41.55C102.874 41.4725 103.035 41.4316 103.106 40.9142C103.14 40.659 102.966 40.2427 102.742 40.0839C102.498 39.8962 102.353 39.8884 102.252 39.8676C102.054 39.8439 101.994 39.8654 101.943 39.8709C101.776 39.9044 101.789 39.9116 101.761 39.9191C101.703 39.9415 101.713 39.9389 101.704 39.9425C101.688 39.9495 101.691 39.9483 101.688 39.9494C101.68 39.9531 101.685 39.951 101.684 39.9512C101.685 39.9507 101.688 39.9493 101.693 39.9472C101.705 39.9417 101.712 39.9383 101.716 39.9363C101.762 39.9144 101.825 39.8845 101.878 39.8589C102.095 39.7545 102.337 39.6355 102.546 39.5315C102.992 39.3096 103.436 39.0836 103.884 38.8502C104.761 38.3943 105.647 37.9155 106.517 37.4264C109.799 35.5733 113.01 33.5453 115.861 31.1586C116.351 30.7447 116.821 30.3142 117.151 29.8865C117.413 29.5428 117.534 29.2464 117.591 28.8474C117.673 28.2951 117.648 27.7283 117.573 27.139C117.416 25.8944 116.931 24.5847 116.45 23.2276C116.223 22.5884 115.938 21.9735 115.596 21.3895C114.339 19.2262 112.3 17.5461 109.963 16.5431C109.284 16.2505 108.617 15.9791 107.932 15.7209C102.151 13.3661 95.9405 13.3813 89.5419 13.3791C89.013 13.3736 88.4816 13.391 87.9495 13.4282C83.4127 13.7673 78.9533 15.3987 74.7022 17.3478C74.3164 17.5258 73.9367 17.7045 73.5599 17.8853C67.8151 20.6401 62.3375 24.2307 56.5128 27.1792C56.2224 27.33 55.9323 27.4758 55.6398 27.6181C49.7895 30.3521 43.8113 31.8139 38.0712 34.1557C37.9028 34.2212 37.7352 34.2856 37.5685 34.3489C30.6535 37.0517 22.9017 38.1996 15.5159 37.2058C15.4902 37.203 15.4644 37.2002 15.4387 37.1974C8.91426 36.2763 3.67838 32.4851 -0.810349 28.2479C-0.88549 28.1741 -0.95974 28.1004 -1.03309 28.0269C-5.02628 24.1913 -5.22327 18.2811 -4.87841 13.5929C-4.87591 13.5483 -4.87328 13.5038 -4.87052 13.4593C-4.73129 11.4009 -4.37394 9.1271 -2.92209 7.19941C-2.85995 7.11803 -2.79642 7.03755 -2.73158 6.95793C0.444809 3.34503 4.5853 1.83099 8.3367 -0.0278436C8.38452 -0.0504939 8.4324 -0.0727568 8.48033 -0.0946361C12.5124 -1.9425 16.8632 -1.03329 20.5281 -0.281767C20.5681 -0.273652 20.6081 -0.265576 20.6479 -0.257543C22.7542 0.172282 24.6644 1.0869 26.3717 2.21117C26.4436 2.25864 26.516 2.30708 26.5871 2.35531C30.511 5.20829 30.745 9.84977 31.2476 13.4767C31.2511 13.5064 31.2543 13.5361 31.2572 13.5658C31.4123 15.1237 30.839 16.505 30.2508 17.5885C29.863 18.3027 29.4367 18.9436 29.0909 19.5297L28.8568 19.8238C28.7895 19.8875 28.7208 19.9505 28.6517 20.0117C26.9781 21.4777 24.9641 22.1667 23.0313 22.5846L22.9293 22.6027C22.8842 22.6086 22.839 22.6143 22.7939 22.6198C21.3787 22.7861 20.0481 22.7579 18.7536 22.7519C18.4142 22.7494 18.0887 22.6114 17.8488 22.3696C17.6088 22.1279 17.4739 21.8022 17.4739 21.4628C17.4739 21.1234 17.6088 20.7978 17.8488 20.556C18.0887 20.3143 18.4142 20.1763 18.7536 20.1738C20.0445 20.1631 21.3085 20.1576 22.4628 20.0059C22.4994 20.001 22.536 19.996 22.5722 19.9908L22.4702 20.0088C24.145 19.6334 25.7368 18.9997 26.8669 17.9972C26.914 17.9555 26.9606 17.9127 27.006 17.8698L26.7718 18.1639C27.1777 17.48 27.5711 16.8882 27.8881 16.3036C28.3812 15.4085 28.6648 14.5588 28.5857 13.83C28.5843 13.8157 28.5827 13.8013 28.5811 13.787C28.168 10.152 27.5984 6.25936 25.0864 4.56639C25.0239 4.52387 24.9604 4.48122 24.8974 4.43949C23.4018 3.44891 21.7862 2.65731 20.1193 2.3038C20.079 2.2953 20.0386 2.28677 19.9982 2.27823C16.2956 1.46287 12.6024 0.780782 9.52505 2.20346C9.48782 2.22029 9.45064 2.23742 9.41349 2.25485C5.65575 4.05579 1.62688 5.72166 -0.79985 8.53564C-0.849007 8.59561 -0.89679 8.65571 -0.943184 8.71595C-1.91203 9.96371 -2.30656 11.7677 -2.42626 13.6151C-2.42886 13.6547 -2.43135 13.6944 -2.43373 13.7343C-2.79069 18.4333 -2.51945 23.2485 0.671745 26.3301C0.739639 26.3985 0.808464 26.4673 0.878189 26.5363C5.02869 30.5296 10.1668 34.1313 15.6939 34.8831C15.7191 34.8859 15.7443 34.8887 15.7696 34.8915C22.9075 35.855 30.0545 34.8016 36.758 32.2091C36.9185 32.1484 37.08 32.0866 37.2423 32.0235C43.0416 29.6698 49.2095 28.1226 54.6455 25.5715C54.9202 25.4381 55.1925 25.3015 55.465 25.1603C61.2216 22.2548 66.6247 18.7073 72.5848 15.85C72.972 15.6647 73.3622 15.4816 73.7582 15.2994C78.1473 13.2994 82.7929 11.5714 87.7946 11.1963C88.3821 11.1559 88.9732 11.1371 89.5664 11.144C95.809 11.1488 102.619 11.143 108.714 13.6508C109.435 13.9237 110.133 14.2096 110.84 14.5164C113.549 15.6847 115.975 17.6773 117.483 20.2901C117.892 20.994 118.233 21.7354 118.503 22.5022C118.971 23.8537 119.514 25.26 119.718 26.877C119.81 27.6422 119.777 28.4583 119.59 29.2468C119.452 29.8966 119.097 30.5852 118.704 31.0792C118.204 31.7209 117.663 32.1967 117.125 32.6562C114.123 35.1732 110.845 37.2546 107.494 39.1602C106.606 39.6626 105.703 40.1536 104.808 40.6214C104.349 40.8608 103.896 41.0927 103.437 41.3213C103.222 41.4285 102.973 41.5511 102.745 41.6608C102.689 41.6877 102.624 41.7192 102.572 41.7435C102.568 41.7458 102.56 41.7494 102.546 41.7561C102.54 41.7587 102.537 41.7605 102.534 41.7616C102.532 41.7627 102.535 41.7611 102.527 41.7648C102.525 41.7659 102.528 41.7647 102.512 41.7717C102.503 41.7753 102.513 41.7727 102.454 41.7951C102.426 41.8027 102.439 41.8098 102.273 41.8433C102.222 41.8488 102.161 41.8703 101.964 41.8466C101.862 41.8258 101.718 41.818 101.474 41.6303C101.249 41.4715 101.075 41.0552 101.109 40.8C101.18 40.2826 101.341 40.2417 101.387 40.1643C101.447 40.1024 101.477 40.0813 101.503 40.061C101.65 39.9579 101.619 39.9874 101.641 39.9728C101.674 39.9555 101.668 39.9593 101.673 39.9567C101.681 39.9528 101.679 39.9535 101.681 39.9529C101.682 39.9523 101.682 39.9522 101.683 39.952C101.683 39.9518 101.683 39.9516 101.684 39.9514C101.686 39.9505 101.72 39.9345 101.731 39.9297C101.752 39.9197 101.781 39.9063 101.818 39.8895C101.923 39.8411 102.052 39.7821 102.162 39.7323C102.197 39.7164 102.234 39.6998 102.273 39.6825C102.798 39.4845 103.061 39.4369 103.452 39.332C103.636 39.2852 103.821 39.2389 104.006 39.1914C104.099 39.1674 104.192 39.1432 104.29 39.1178C104.338 39.1053 104.386 39.0928 104.446 39.0779C104.476 39.0706 104.498 39.0646 104.558 39.0519C104.575 39.0484 104.576 39.0478 104.618 39.0407C104.636 39.0378 104.657 39.0345 104.691 39.0315C104.709 39.03 104.722 39.0287 104.759 39.0279C104.803 39.0282 104.858 39.0246 104.979 39.0507C105.081 39.085 105.378 39.1195 105.602 39.5643C105.701 39.7766 105.689 40.0305 105.647 40.1676C105.623 40.2548 105.592 40.3201 105.563 40.3714C105.504 40.4733 105.455 40.5246 105.417 40.5635C105.342 40.6375 105.302 40.6615 105.271 40.6834C105.198 40.7296 105.217 40.7157 105.196 40.7283C105.169 40.7428 105.15 40.7518 105.132 40.76C105.095 40.777 105.056 40.794 105.023 40.8087C103.792 41.2949 102.691 41.586 101.497 41.8782Z" fill="black"/>
<path d="M101.158 34.8771C101.029 34.8618 101.22 34.946 101.253 34.6646C101.253 34.6608 101.254 34.6569 101.254 34.653C101.266 34.5396 101.268 34.3955 101.269 34.2113C101.269 34.1878 101.269 34.1633 101.269 34.1384C101.271 33.9173 101.273 33.6366 101.302 33.2615C101.352 32.628 101.541 32.2107 101.882 31.916C102.012 31.802 102.151 31.7013 102.362 31.5597C102.242 31.6547 102.092 31.7759 101.873 31.9846C101.763 32.09 101.635 32.2181 101.481 32.3927C101.356 32.564 100.72 33.1415 100.169 34.6118C99.9031 35.3651 99.6299 36.5132 99.8604 37.977C99.994 39.3828 101.249 41.4872 102.41 42.2695C104.755 43.9295 106.123 43.5999 106.297 43.6829C106.951 43.7018 107.266 43.6494 107.514 43.6165C107.789 43.5735 107.812 43.5637 107.918 43.5416C108.005 43.5221 108.074 43.5049 108.131 43.4895C108.258 43.4555 108.285 43.4446 108.338 43.4271C108.515 43.3651 108.519 43.3496 108.538 43.3326C108.562 43.3022 108.524 43.2932 108.502 43.2846C108.147 43.2199 107.567 43.4732 106.898 43.7671C106.836 43.7939 106.778 43.8195 106.715 43.8473C106.69 43.8583 106.661 43.8713 106.637 43.8824C106.59 43.9029 106.645 43.8804 106.496 43.9443C106.466 43.957 106.437 43.9696 106.407 43.9822C106.313 44.0214 106.317 44.2486 106.412 44.492C106.508 44.7353 106.664 44.9006 106.761 44.8596C106.794 44.8454 106.828 44.8313 106.861 44.8171C107.026 44.7464 106.957 44.7754 107.006 44.7541C107.027 44.7444 107.057 44.7314 107.079 44.7217C107.079 44.7215 107.079 44.7214 107.08 44.7213C107.145 44.692 107.205 44.6655 107.269 44.6375C107.93 44.3448 108.485 44.0975 108.815 44.1591C108.839 44.1674 108.877 44.1768 108.851 44.2081C108.831 44.2258 108.819 44.2434 108.642 44.3066C108.532 44.3395 108.447 44.3877 107.864 44.5009C107.642 44.538 107.328 44.5978 106.714 44.615C106.557 44.6183 106.379 44.6178 106.165 44.6072C106.099 44.6035 106.099 44.6044 105.96 44.594C105.829 44.5838 105.686 44.5694 105.528 44.548C105.211 44.5046 104.834 44.4367 104.366 44.2984C103.466 44.0176 101.992 43.4646 100.588 41.7838C99.9109 40.9756 99.3346 39.8207 99.0923 38.8343C98.8568 37.9299 98.8104 37.0542 98.8667 36.3183C99.226 33.3542 100.206 32.5922 100.614 31.9782C100.643 31.9424 100.672 31.9082 100.7 31.8754C100.713 31.8603 100.725 31.8463 100.738 31.8321C100.762 31.8039 100.786 31.7769 100.809 31.7507C100.856 31.6985 100.9 31.6501 100.943 31.6049C101.028 31.5145 101.105 31.4367 101.176 31.3676C101.458 31.094 101.644 30.9447 101.792 30.8278C101.568 30.9831 101.43 31.088 101.302 31.205C100.96 31.5133 100.799 31.9422 100.791 32.5895C100.787 32.9701 100.806 33.2524 100.823 33.4729C100.824 33.4971 100.826 33.5207 100.828 33.5433C100.828 33.5439 100.828 33.5444 100.828 33.545C100.843 33.7285 100.856 33.8642 100.86 33.9699C100.86 33.972 100.86 33.9741 100.86 33.9762C100.864 34.2544 100.733 34.1462 100.934 34.1415C100.971 34.1423 101.053 34.3062 101.106 34.5115C101.159 34.7166 101.179 34.8817 101.158 34.8771ZM111.42 26.9432C111.743 26.5974 111.638 26.1788 111.408 25.8572C111.395 25.8401 111.383 25.8229 111.37 25.8059C111.139 25.5028 110.801 25.2795 110.6 25.1874C110.392 25.0899 110.295 24.9554 110.207 24.7852C110.187 24.7463 110.167 24.7058 110.146 24.6641C110.079 24.5271 110 24.3733 109.864 24.2266C109.362 23.6887 109.171 23.3161 109.061 23.0231C109.038 22.9633 109.019 22.9068 109 22.8539C109 22.8538 109 22.8537 109 22.8537C108.93 22.6547 108.872 22.5047 108.701 22.4308C108.397 22.3 108.133 22.2069 107.698 22.1776C107.1 22.1387 106.894 21.7327 106.982 21.2787C106.987 21.2539 106.993 21.228 106.998 21.2022C107.063 20.8725 107.134 20.457 107.024 19.9571C106.931 19.5414 106.695 19.2879 106.452 19.0953C106.383 19.04 106.313 18.9906 106.246 18.9427C106.076 18.8216 105.923 18.7159 105.822 18.5749C105.233 17.7638 104.659 17.4399 104.196 17.3457L105.214 18.0753C105.197 18.0885 105.182 18.1031 105.167 18.1189C105.062 18.2383 105.001 18.4133 104.943 18.5681C104.919 18.6351 104.897 18.6995 104.878 18.7573C104.858 18.8154 104.841 18.8677 104.828 18.9087C104.712 19.2757 104.636 19.4332 104.458 19.6126C104.419 19.6524 104.376 19.6941 104.325 19.739C104.159 19.8898 104.03 19.8438 103.928 19.758C103.884 19.7205 103.841 19.6759 103.804 19.6334C103.803 19.6325 103.803 19.6316 103.802 19.6306C103.797 19.6247 103.791 19.6193 103.786 19.6135C103.782 19.6091 103.778 19.6036 103.774 19.5993C103.773 19.594 103.772 19.5905 103.771 19.5874C103.77 19.585 103.769 19.5832 103.769 19.5821C103.769 19.5816 103.769 19.5812 103.769 19.5808C103.763 19.5601 103.756 19.5515 103.755 19.5497C103.752 19.5465 103.75 19.545 103.749 19.5439C103.743 19.5385 103.735 19.5349 103.729 19.5329C103.715 19.5277 103.69 19.5207 103.653 19.5122C103.621 19.494 103.59 19.4653 103.551 19.4289C103.548 19.4265 103.546 19.4242 103.543 19.4218C103.505 19.3862 103.462 19.3457 103.402 19.3045C103.347 19.2669 103.275 19.466 103.242 19.7491C103.208 20.0323 103.222 20.2916 103.275 20.329C103.33 20.3675 103.37 20.4059 103.406 20.4411C103.408 20.4434 103.411 20.4458 103.413 20.4481C103.451 20.4849 103.487 20.5194 103.526 20.5412C103.539 20.5485 103.552 20.5545 103.564 20.5591C103.585 20.5741 103.61 20.5988 103.638 20.6296C103.643 20.6358 103.649 20.6416 103.655 20.6481C103.691 20.6903 103.733 20.7395 103.779 20.7799C103.885 20.8741 104.017 20.921 104.17 20.7522C104.21 20.7079 104.245 20.6666 104.275 20.6259C104.418 20.4391 104.449 20.2594 104.508 19.8474C104.516 19.7912 104.528 19.7273 104.541 19.66C104.546 19.6345 104.551 19.6083 104.557 19.5817C104.597 19.4017 104.626 19.1892 104.706 19.0301C104.713 19.0178 104.72 19.0061 104.728 18.9949L103.481 18.1017C103.923 18.1756 104.486 18.4716 105.06 19.2643C105.162 19.4065 105.321 19.5127 105.487 19.6287C105.551 19.6729 105.615 19.7189 105.678 19.7679C105.908 19.9466 106.128 20.1793 106.207 20.5648C106.303 21.034 106.226 21.4242 106.156 21.7408C106.153 21.752 106.15 21.763 106.147 21.7741C106.144 21.7877 106.141 21.8012 106.138 21.8144C106.035 22.2816 106.23 22.6863 106.878 22.7078C107.286 22.7227 107.533 22.7992 107.829 22.9133C107.974 22.9698 108.019 23.0893 108.083 23.2702C108.101 23.3211 108.121 23.3767 108.144 23.4379C108.248 23.7146 108.43 24.0622 108.923 24.5578C109.051 24.6873 109.124 24.8228 109.188 24.9482C109.209 24.9874 109.229 25.026 109.249 25.0637C109.334 25.2211 109.434 25.3606 109.672 25.4621C109.853 25.5383 110.169 25.7292 110.39 25.995C110.407 26.0151 110.423 26.0354 110.439 26.0559C110.662 26.3509 110.743 26.7146 110.459 27.0023C110.43 27.0324 110.401 27.0625 110.371 27.0924C110.324 27.1405 110.277 27.1883 110.228 27.2359L110.393 25.5463C110.179 25.4426 109.933 25.3546 109.575 25.2011C108.211 24.5658 107.803 24.3835 107.499 24.6824C107.213 24.9576 107.072 25.6178 106.798 26.0332C106.791 26.0442 106.784 26.0553 106.776 26.0664C106.126 27.0425 105.379 27.6689 105.139 27.8745C105.128 27.8843 105.117 27.893 105.108 27.901C105.099 27.9081 105.092 27.9142 105.085 27.9199C104.985 28.0058 104.875 28.0574 104.76 28.1114C104.754 28.1143 104.747 28.1173 104.741 28.1202C104.618 28.1778 104.491 28.24 104.371 28.3493C103.921 28.7563 103.504 29.0494 103.137 29.2952C103.069 29.3405 103.004 29.3844 102.938 29.4287C102.937 29.4288 102.937 29.429 102.937 29.4291C102.647 29.6213 102.395 29.7846 102.163 29.9733C101.755 30.3066 101.424 30.495 101.156 30.6278C101.072 30.6699 100.993 30.7067 100.919 30.7408C100.761 30.8126 100.616 30.8812 100.482 30.9727C100.238 31.138 99.9649 31.2751 99.7075 31.404C99.6841 31.4159 99.6635 31.4262 99.6378 31.4399C99.334 31.6007 99.036 31.7643 98.7157 32.0395C98.6333 32.1103 98.6952 32.3407 98.8663 32.5404C99.0359 32.7409 99.2443 32.8413 99.325 32.7722C99.4691 32.6483 99.6238 32.5384 99.7759 32.4431C99.9142 32.3589 100.059 32.2813 100.211 32.2017C100.236 32.1882 100.261 32.1766 100.283 32.1655C100.536 32.0405 100.815 31.8998 101.062 31.7334C101.19 31.6464 101.33 31.5799 101.483 31.5105C101.558 31.4763 101.639 31.4391 101.729 31.3949C102.003 31.2592 102.338 31.0704 102.755 30.7322C102.986 30.5453 103.236 30.3824 103.529 30.1892C103.597 30.1445 103.664 30.1001 103.734 30.0541C104.106 29.8058 104.53 29.5081 104.991 29.094C105.107 28.9895 105.229 28.929 105.353 28.8706C105.36 28.8672 105.367 28.8638 105.374 28.8604C105.49 28.8056 105.608 28.7506 105.716 28.6584C105.73 28.646 105.748 28.63 105.771 28.6113C106.016 28.4012 106.781 27.7652 107.47 26.7543C107.472 26.7511 107.474 26.7478 107.476 26.7446C107.926 26.074 108.101 25.7295 108.455 25.6764C108.739 25.6268 108.862 25.5414 108.945 25.4636C108.962 25.4486 108.976 25.4347 108.99 25.4214C109.047 25.3638 109.087 25.3239 109.171 25.3181C109.43 25.2936 109.75 25.4103 110.355 25.6108C110.811 25.7645 111.122 25.8043 111.374 25.851L111.25 27.1271C111.278 27.0973 111.305 27.0678 111.332 27.0386C111.333 27.0382 111.333 27.0378 111.333 27.0374C111.363 27.0055 111.391 26.9741 111.42 26.9432ZM102.585 18.5473C102.521 18.5514 102.451 18.7862 102.43 19.0722C102.41 19.3585 102.446 19.5877 102.509 19.5836C102.657 19.5732 102.808 19.5638 102.954 19.5547C103.015 19.5508 103.083 19.3167 103.107 19.0312C103.132 18.7455 103.102 18.5162 103.039 18.5196C102.889 18.5282 102.735 18.5374 102.585 18.5473ZM116.216 27.5029C116.259 27.4639 116.245 27.4053 116.189 27.3457C116.24 27.1906 116.276 26.7564 116.262 26.5935C116.19 26.5712 116.079 26.5607 115.947 26.5668C115.738 26.5766 115.536 26.6244 115.435 26.6815C115.443 26.772 115.423 27.0131 115.395 27.0992C115.362 27.1047 115.336 27.114 115.319 27.1275C115.277 27.1603 115.204 27.2121 115.104 27.2762C114.368 27.8408 112.329 28.2857 110.925 29.1393C110.805 29.2158 110.693 29.2819 110.589 29.3414C110.133 29.6027 109.371 29.3922 108.69 30.0659C107.433 31.2992 106.194 32.6504 104.875 33.9596C104.217 34.615 103.537 35.2557 102.812 35.9003C102.643 36.0524 102.445 36.2262 102.252 36.4003C102.141 36.5 102.073 36.5618 101.939 36.6894C101.879 36.7464 101.821 36.8033 101.763 36.8641C101.685 36.946 101.597 37.0416 101.497 37.1797C101.459 37.2378 101.311 37.4186 101.207 37.7652C101.181 37.8563 101.158 37.9642 101.146 38.0949C101.141 38.1658 101.138 38.2122 101.142 38.3241C101.148 38.4478 101.169 38.5859 101.213 38.7288C101.376 39.3428 101.991 39.7658 102.319 39.8447C102.527 39.9056 102.544 39.8986 102.614 39.9109C102.675 39.9191 102.729 39.9235 102.778 39.9257C102.877 39.9301 102.957 39.9267 103.027 39.9211C103.164 39.9104 103.284 39.8859 103.322 39.8784C103.543 39.8337 103.734 39.7712 103.853 39.7349C104.163 39.6341 104.348 39.5711 104.626 39.4743C104.78 39.4188 104.884 39.3863 105.014 39.345C105.433 39.2134 105.86 39.0975 106.284 39.0076C106.46 38.9705 106.635 38.9296 106.793 38.8927C106.872 38.8743 106.948 38.8568 107.002 38.8477C107.024 38.8442 107.052 38.8407 107.018 38.8543C107.011 38.8572 106.992 38.8633 106.958 38.8718C106.918 38.8796 106.901 38.8929 106.697 38.9119C106.647 38.9156 106.585 38.9187 106.503 38.9166C106.478 38.9062 106.196 38.9495 105.688 38.7174C105.434 38.5966 105.076 38.3493 104.825 37.9226C104.563 37.4651 104.532 37.0699 104.551 36.7527C104.615 36.1158 104.825 35.8759 104.929 35.7123C105.068 35.5299 105.061 35.5516 105.104 35.503C105.137 35.4685 105.165 35.4418 105.189 35.4195C105.237 35.3752 105.27 35.348 105.296 35.3273C105.142 35.4347 105.02 35.5248 104.9 35.616C104.329 36.0501 103.868 36.5063 103.395 36.9258C102.982 37.3098 102.366 37.9472 102 38.1396C102.011 38.1393 102.024 38.1389 102.038 38.1386C102.101 38.1381 102.204 38.1312 102.378 38.169C102.547 38.2033 102.788 38.3176 102.943 38.4731C103.253 38.8038 103.216 38.9707 103.224 39.0114C103.21 39.0928 103.179 38.9717 103.174 38.9173C103.167 38.8629 102.992 38.8044 102.782 38.8048C102.782 38.8048 102.782 38.8048 102.782 38.8048C102.78 38.8048 102.779 38.8048 102.778 38.8048C102.566 38.8055 102.399 38.8633 102.406 38.9272C102.413 38.9951 102.436 39.1212 102.473 39.1696C102.485 39.1928 102.526 39.165 102.428 39.0428C102.312 38.9145 102.154 38.9114 102.165 38.8957C102.164 38.8937 102.164 38.8916 102.165 38.8892C102.715 38.65 103.394 38.0045 103.859 37.6266C104.387 37.2086 104.896 36.7549 105.48 36.3273C105.601 36.2389 105.724 36.1514 105.865 36.0574C105.834 36.0884 105.832 36.0668 105.69 36.2408C105.637 36.3206 105.536 36.4328 105.483 36.739C105.463 36.8964 105.459 37.0799 105.56 37.326C105.662 37.5723 105.856 37.7508 106.005 37.8371C106.303 38.0061 106.485 37.983 106.514 37.9901C106.56 37.9918 106.594 37.9904 106.621 37.9885C106.818 37.9659 106.755 37.963 106.773 37.9598C106.772 37.9554 106.737 37.9613 106.704 37.9674C106.634 37.9811 106.554 37.9989 106.47 38.0183C106.303 38.0562 106.127 38.0961 105.949 38.1326C105.509 38.2231 105.068 38.3281 104.63 38.4418C104.499 38.476 104.377 38.5076 104.239 38.5474C103.967 38.6252 103.782 38.6689 103.506 38.7368C103.401 38.7584 103.236 38.7987 103.097 38.8142C103.073 38.8162 103 38.8273 102.936 38.8291C102.856 38.827 102.834 38.8429 102.648 38.7907C102.528 38.7588 102.322 38.6085 102.271 38.4008C102.224 38.1699 102.262 38.1511 102.278 38.07C102.317 37.9464 102.385 37.8609 102.407 37.8341C102.861 37.3712 103.22 37.1876 103.615 36.8985C104.393 36.361 105.159 35.8229 105.902 35.2631C107.392 34.143 108.816 32.9408 110.148 31.6513C110.871 30.9471 110.81 30.3053 111.274 30.0368C111.382 29.9739 111.498 29.9054 111.624 29.8236C113.054 28.9421 115.172 28.3854 115.975 27.6947C116.086 27.6127 116.168 27.5458 116.216 27.5029ZM115.279 23.2605C115.121 22.4172 114.577 21.3118 114.017 20.4223C113.746 19.9863 113.477 19.5963 113.273 19.2802C112.956 18.79 112.554 18.6076 112.161 18.4426C112.157 18.4408 112.153 18.4389 112.149 18.4371C111.754 18.2725 111.366 18.1205 111.006 17.6914C110.642 17.259 110.29 16.5448 109.892 15.8346C109.891 15.8342 109.891 15.8337 109.89 15.8332C109.5 15.1312 109.432 14.0621 108.983 13.6697C108.726 13.4455 108.471 13.2519 108.221 13.0848C108.172 13.0369 108.013 12.9257 107.953 12.8926C107.694 12.8004 107.431 12.7335 107.183 12.6966C105.834 12.5281 105.068 12.9876 104.582 13.3082C103.422 14.1588 102.297 12.9876 101.118 14.1648C100.979 14.4327 101.146 15.2348 101.375 15.0194C101.383 15.0135 101.391 15.0075 101.399 15.0016C101.481 14.9464 101.551 14.9018 101.646 14.8681C101.78 14.8437 101.886 14.848 101.977 14.852C102.22 14.8596 103.886 14.7875 104.51 14.3214C104.932 14.0042 105.66 14.2177 106.461 14.5891C106.61 14.6606 106.76 14.7404 106.927 14.8337L106.713 14.6806C106.914 14.8778 107.134 15.0828 107.379 15.2926C107.791 15.6429 108.725 15.805 109.109 16.4969C109.11 16.4987 109.111 16.5006 109.112 16.5024C109.491 17.1842 109.828 17.8776 110.184 18.2955C110.544 18.7179 110.941 18.8622 111.332 19.0152C111.336 19.0166 111.34 19.0181 111.344 19.0195C111.725 19.1694 112.099 19.33 112.393 19.777C112.593 20.0829 112.854 20.4565 113.116 20.8709C113.652 21.7073 114.171 22.7358 114.317 23.5281C114.331 23.5991 114.557 23.5985 114.823 23.5269C115.089 23.4553 115.293 23.336 115.279 23.2605ZM121.244 21.501C121.477 18.0896 119.564 14.9803 116.93 13.3659C116.464 12.7708 115.772 11.9958 115.064 11.2882C115.056 11.2804 115.047 11.2727 115.039 11.2649C114.339 10.5627 113.629 9.92375 113.131 9.47196C112.842 9.20947 112.569 8.97215 112.309 8.7576C112.022 8.47639 111.085 7.82351 110.734 7.6293C110.292 7.41498 109.793 7.20985 109.334 7.05965C106.78 6.30812 105.965 6.60903 105.322 6.88477C104.546 7.3182 104.389 7.31032 104.114 7.28734C104.107 7.28711 104.099 7.28687 104.092 7.28664C104.092 7.28575 104.091 7.28486 104.091 7.28396C104.083 7.26982 104.076 7.26152 104.072 7.25785C104.065 7.25038 104.059 7.24728 104.056 7.2461C104.051 7.24338 104.046 7.2428 104.044 7.24246C104.037 7.24109 104.029 7.24058 104.024 7.24067C103.976 7.24147 103.825 7.25981 103.707 7.29289C103.583 7.32656 103.497 7.37632 103.404 7.4315C103.395 7.43719 103.386 7.44287 103.376 7.44856C103.292 7.49858 103.202 7.55314 103.076 7.61057C102.999 7.6456 102.927 7.90431 102.917 8.1886C102.906 8.47269 102.96 8.67438 103.036 8.63944C103.165 8.57875 103.264 8.52085 103.346 8.47038C103.355 8.46468 103.364 8.45897 103.373 8.45327C103.459 8.40025 103.537 8.35797 103.644 8.32746C103.794 8.30776 103.91 8.31579 104.012 8.32343C104.29 8.34595 104.473 8.35396 105.265 7.8986C105.856 7.63271 106.64 7.35404 108.965 8.02632C109.385 8.16119 109.842 8.34614 110.251 8.54271C110.552 8.70895 111.354 9.26783 111.6 9.50855C111.853 9.71664 112.121 9.94729 112.404 10.2031C112.893 10.6432 113.587 11.2638 114.269 11.9421C114.277 11.9502 114.285 11.9582 114.293 11.9662C114.984 12.6508 115.657 13.3961 116.108 13.9682C117.888 16.2218 118.777 19.0451 120.282 21.7654C120.395 22.3224 120.499 22.8256 120.583 23.2948C120.627 23.5416 120.665 23.776 120.696 24.0054C120.801 24.788 120.817 25.4757 120.638 26.1277C120.684 26.6741 120.565 28.1304 120.391 28.6506C120.189 29.0205 119.957 29.3365 119.701 29.6079C119.439 29.881 118.951 30.6255 118.279 31.36C118.089 31.5671 117.88 31.7851 117.651 32.0094C117.109 32.5321 116.463 33.0743 115.756 33.5671C115.608 33.6713 115.467 33.7652 115.342 33.8445C114.794 34.1904 114.362 34.4587 113.537 35.2433C112.52 36.2178 110.93 37.8166 110.109 38.6816C109.704 39.1129 109.488 39.3854 109.351 39.5786C109.313 39.6324 109.28 39.6818 109.248 39.7277C109.165 39.8466 109.101 39.9375 109.006 40.0379C108.33 40.7581 107.674 41.1009 106.815 41.4841C106.766 41.5047 106.867 41.6822 107.034 41.8846C107.201 42.087 107.368 42.2415 107.413 42.2244C108.238 41.8724 108.915 41.5174 109.602 40.7897C109.701 40.6849 109.77 40.5869 109.855 40.4656C109.888 40.4199 109.919 40.3737 109.956 40.3222C110.091 40.1316 110.307 39.8616 110.714 39.4305C111.543 38.5636 113.155 36.9537 114.194 35.9635C115.03 35.1721 115.463 34.8995 116.024 34.5422C116.153 34.4595 116.298 34.3634 116.453 34.2537C117.18 33.7425 117.855 33.1725 118.421 32.621C118.662 32.3839 118.881 32.1527 119.081 31.9324C119.802 31.1351 120.302 30.3567 120.533 30.1189C120.833 29.7977 121.109 29.4071 121.346 28.9471C121.548 28.344 121.686 26.6554 121.632 26.0218C121.801 25.3402 121.781 24.6204 121.673 23.8168C121.64 23.5711 121.599 23.3212 121.552 23.0587C121.465 22.5757 121.359 22.0623 121.244 21.501ZM103.527 32.3461C103.449 32.3597 103.461 32.5674 103.555 32.8088C103.648 33.0503 103.785 33.2347 103.862 33.221C104.271 33.1473 104.574 33.1051 104.905 33.0475C105.025 33.0251 105.119 33.0083 105.333 32.9613C105.393 32.9484 105.432 32.9406 105.546 32.9165C105.598 32.9059 105.656 32.8945 105.726 32.8823C105.761 32.8762 105.799 32.8699 105.841 32.8635C105.908 32.8529 105.985 32.8418 106.08 32.8317C106.176 32.8216 106.289 32.812 106.438 32.8083C106.513 32.8066 106.596 32.8065 106.693 32.81C106.743 32.8118 106.788 32.8141 106.852 32.8188C106.976 32.828 107.12 32.8434 107.293 32.8748C107.636 32.9427 108.116 33.0477 108.762 33.4504C109.394 33.8301 110.198 34.6985 110.486 35.7407C110.956 37.557 110.302 38.5587 110.059 39.0139C109.91 39.2587 109.782 39.4184 109.676 39.5448C109.611 39.62 109.579 39.6539 109.536 39.6997C109.454 39.7848 109.386 39.8499 109.326 39.9046C109.206 40.0133 109.117 40.0823 109.043 40.1385C108.959 40.1518 108.84 40.2163 108.72 40.2995C108.703 40.3112 108.685 40.3237 108.667 40.3371C108.068 40.7738 107.329 41.1878 106.621 41.5334C105.445 42.1065 104.248 42.5899 103.37 42.8532C103.236 42.8944 103.16 43.0929 103.208 43.2995C103.256 43.5058 103.426 43.6384 103.578 43.5931C104.549 43.3057 105.835 42.7978 107.083 42.2333C107.837 41.8902 108.627 41.4812 109.243 41.0489C109.263 41.035 109.282 41.0223 109.299 41.0104C109.42 40.9309 109.54 40.8683 109.612 40.8691C109.694 40.8071 109.79 40.7314 109.917 40.6182C109.981 40.5613 110.053 40.4947 110.136 40.4107C110.178 40.3687 110.223 40.3222 110.271 40.2696C110.322 40.2117 110.352 40.1857 110.509 39.9886C110.76 39.6344 111.196 39.1635 111.487 37.8534C111.612 37.1944 111.659 36.3168 111.313 35.2844C110.936 34.1231 110.056 33.1749 109.336 32.7177C107.884 31.8142 106.987 31.9293 106.795 31.8865C106.567 31.8753 106.394 31.8803 106.25 31.888C105.969 31.9038 105.775 31.9349 105.66 31.9531C105.569 31.9676 105.494 31.9814 105.428 31.9942C105.296 32.02 105.2 32.0424 105.143 32.0543C104.874 32.1149 104.775 32.1353 104.653 32.1583C104.267 32.2305 103.959 32.2701 103.527 32.3461Z" fill="black"/>
<path d="M96.5971 19.9743C95.1788 20.3474 93.2922 20.5936 92.0219 21.2333C92.004 21.2423 91.9862 21.2512 91.9685 21.2601C91.6289 21.4313 91.298 21.6205 90.9655 21.8325C90.868 21.8951 90.766 21.9607 90.67 22.0252C90.7609 21.9873 90.878 21.9383 91.0765 21.8382C91.2827 21.7264 91.5417 21.6156 92.1307 21.1628C92.2108 21.0991 92.2686 21.0528 92.3903 20.9464C92.7609 20.5948 93.3305 20.1394 93.9742 18.8361C94.6511 17.6589 94.9619 14.6802 93.6556 12.7253C92.4257 10.7957 91.111 10.3155 90.4141 10.0159C89.6917 9.74334 89.1861 9.68094 88.9875 9.65052C88.9136 9.64026 88.8458 9.63213 88.7831 9.62543C88.6576 9.61207 88.5517 9.60427 88.4587 9.59899C88.0915 9.58 87.9039 9.59089 87.7557 9.59718C87.4498 9.61548 87.4308 9.62184 87.3639 9.62677C87.3074 9.6319 87.2693 9.63547 87.2412 9.63772C87.1482 9.64424 87.1638 9.63466 87.1751 9.62421C87.2042 9.60433 87.2738 9.57557 87.3574 9.54353C88.1174 9.25215 89.2806 8.8564 90.7995 8.38116C92.3329 7.89803 93.9369 7.46575 94.8586 7.12795C94.891 7.11581 94.9183 7.10521 94.9396 7.09658C95.1482 7.02034 95.266 6.97583 95.3907 6.92822C95.4022 6.92352 95.4389 6.90876 95.3763 6.93213C95.3296 6.95127 95.2848 6.96268 95.0064 7.08984C94.932 7.12466 94.8389 7.16861 94.6918 7.24619C94.5429 7.33504 94.2938 7.42538 93.5939 7.96704C93.2343 8.29752 92.6763 8.59777 91.7879 10.1337C91.377 10.9095 90.835 12.2061 90.9683 14.0333C91.0656 15.8587 92.1726 17.772 93.2452 18.6864C95.4742 20.516 96.553 20.3263 97.196 20.4841C97.842 20.5528 98.1564 20.5289 98.4075 20.5181C98.8845 20.4867 99.061 20.4485 99.2139 20.4241C99.4973 20.3726 99.5754 20.3491 99.5669 20.3522C99.5822 20.3487 99.5959 20.3454 99.6085 20.3425C99.6337 20.3365 99.6542 20.3315 99.6717 20.3271C99.8039 20.2937 99.7902 20.2962 99.7765 20.3009C99.7646 20.3047 99.7415 20.3118 99.7111 20.3211C99.5605 20.3673 99.4415 20.4045 99.2639 20.4595C99.1255 20.5023 98.9565 20.5544 98.7973 20.6032C98.1792 20.7925 97.5963 20.9643 97.08 21.1104C96.0499 21.4022 95.2392 21.6072 94.8088 21.7134C92.1802 22.3746 89.4513 23.3764 85.8316 24.813C85.499 24.9453 85.1612 25.0819 84.8189 25.2199C84.5367 25.3335 84.3845 25.635 84.4754 25.8944C84.5665 26.154 84.8638 26.2724 85.1443 26.1579C85.4774 26.0219 85.8059 25.8888 86.1288 25.7588C86.1303 25.7582 86.1317 25.7576 86.1332 25.757C89.7548 24.3019 92.4165 23.3145 94.9741 22.6626C95.4203 22.5503 96.2332 22.3431 97.2854 22.0421C97.8272 21.8867 98.3922 21.7196 99.0409 21.5195C99.3602 21.4212 99.7035 21.3137 99.9648 21.2325C99.997 21.2226 100.022 21.215 100.035 21.2108C100.043 21.2076 100.069 21.201 99.9601 21.2294C99.932 21.2366 99.8949 21.2461 99.8378 21.2597C99.8235 21.2632 99.8078 21.2669 99.7905 21.2709C99.7818 21.2729 99.7727 21.275 99.7631 21.2772C99.7405 21.2824 99.6365 21.3062 99.5158 21.3296C99.3838 21.3541 99.223 21.3878 98.8597 21.4288C98.672 21.4481 98.4366 21.4726 98.0237 21.4754C97.5904 21.4586 97.0555 21.515 95.7021 21.1383C95.0242 20.9216 94.0532 20.5979 92.8132 19.5658C91.5878 18.5931 90.215 16.4565 90.0441 14.307C89.8687 9.84507 91.7251 8.66271 92.2247 7.94055C92.9002 7.25257 93.2595 7.03325 93.5358 6.83791C93.8067 6.65681 93.9797 6.55919 94.1185 6.48159C94.2962 6.38443 94.2507 6.41038 94.2849 6.392C94.3052 6.38139 94.3245 6.37141 94.3429 6.36198C94.3797 6.34313 94.413 6.32644 94.4436 6.31131C94.5047 6.28111 94.5553 6.25708 94.5992 6.23657C94.6867 6.19578 94.7486 6.16863 94.7989 6.14693C94.8981 6.10428 94.9518 6.0831 94.991 6.06757C95.1348 6.0121 95.0704 6.03844 95.0725 6.03792C94.9725 6.07695 94.8397 6.12697 94.6329 6.20264C94.6156 6.20992 94.5918 6.21934 94.5627 6.23042C93.672 6.5597 92.0075 6.99248 90.443 7.46902C88.9272 7.92871 87.7002 8.33218 87.0469 8.59702C86.9947 8.62216 86.9302 8.6468 87.0489 8.64097C87.0531 8.64066 87.0576 8.64032 87.0624 8.63995C87.0932 8.63724 87.1351 8.63296 87.198 8.62674C87.2296 8.62363 87.2665 8.62004 87.3115 8.61597C87.3346 8.61386 87.3561 8.61203 87.3876 8.60932C87.4382 8.60468 87.4975 8.59965 87.5707 8.59462C87.7201 8.58543 87.9098 8.57157 88.2739 8.57897C88.4591 8.58407 88.689 8.5933 89.0316 8.63565C89.0531 8.63836 89.0751 8.64122 89.0975 8.64425C89.1334 8.64935 89.0941 8.64297 89.2447 8.66547C89.4681 8.70032 89.7361 8.74965 90.0849 8.84478C90.7628 9.07214 91.8833 9.2818 93.5111 10.8837C95.2655 12.3705 96.1152 16.4613 95.2296 18.4101C94.5025 20.4442 93.669 21.0953 93.1921 21.5859C93.135 21.639 93.0483 21.7156 93.0295 21.7317C93.0159 21.7435 93.0026 21.7551 92.9893 21.7664C92.9628 21.7891 92.9369 21.811 92.9116 21.8321C92.8609 21.8744 92.8125 21.9137 92.7661 21.9504C92.6732 22.0239 92.5884 22.0876 92.5101 22.1443C92.3536 22.2574 92.2229 22.3434 92.1089 22.4151C91.8817 22.5573 91.7196 22.6446 91.5872 22.7136C91.3257 22.848 91.1788 22.909 91.0647 22.957C91.1557 22.8946 91.2522 22.8312 91.3439 22.7708C91.6951 22.5413 92.0375 22.343 92.388 22.166C92.3983 22.1611 92.4089 22.1561 92.4191 22.1512C93.6696 21.5198 95.4914 21.3001 96.8343 20.946C97.0919 20.8772 97.2483 20.6064 97.1867 20.3371C97.1244 20.0682 96.8616 19.9042 96.5971 19.9743ZM4.65128 36.1256C3.09515 35.1996 0.932907 34.3388 -0.996773 33.4391C-2.94138 32.5541 -4.71899 31.58 -5.57567 31.0945C-5.99915 30.8594 -6.421 30.5663 -6.84886 30.2144C-6.85353 30.2104 -6.85819 30.2062 -6.86285 30.2021C-7.54482 29.6046 -8.13061 28.8269 -8.55386 28.0036C-8.75398 27.6168 -8.92073 27.2237 -9.06258 26.8258C-9.52744 25.5129 -9.71741 24.2092 -9.86308 22.9292C-10.1272 20.3147 -10.0105 18.5577 -9.97955 17.159C-9.97234 16.9939 -9.9613 16.8324 -9.94706 16.6744C-9.78792 15.0443 -9.37973 13.9192 -9.01666 13.0145C-8.82449 12.5478 -8.63426 12.1476 -8.44735 11.7787C-8.44704 11.7781 -8.44675 11.7775 -8.44645 11.7768C-7.73837 10.399 -7.13847 9.51577 -6.68989 8.63373C-5.88538 7.08267 -5.1707 5.89139 -4.3692 4.40806C-3.26245 2.34744 -0.938667 0.155095 0.811928 -0.918052C0.907776 -0.977673 1.00641 -1.03781 1.10581 -1.09879C2.37862 -1.87534 3.93976 -2.79956 6.22352 -4.2179C7.01259 -4.70582 7.75448 -5.18114 8.45142 -5.63469C8.62153 -5.74743 8.79196 -5.85388 8.96224 -5.95434C10.3792 -6.79125 11.8131 -7.23367 13.0615 -7.46825C13.7508 -7.59765 14.3888 -7.6678 14.9808 -7.70369C16.475 -7.78868 17.6902 -7.68411 18.7526 -7.49477C20.5492 -7.1639 21.9708 -6.76141 22.9522 -6.55931C23.0533 -6.53718 23.1529 -6.51345 23.2511 -6.48829C26.4684 -5.52913 27.6721 -4.0344 28.7504 -3.0926C29.7744 -2.09385 30.4547 -1.32788 31.0348 -0.719312C32.2605 0.589847 32.9837 1.19706 33.5277 1.6365C33.5302 1.63855 33.5327 1.64059 33.5352 1.64263C33.6021 1.72029 33.6662 1.7969 33.7275 1.87257C33.936 2.12955 34.1152 2.37734 34.2711 2.62032C36.0913 5.58783 36.0352 8.29494 35.8842 10.5612C35.8425 11.0743 35.7843 11.5826 35.7157 12.0898C35.4801 13.7753 35.0788 14.7808 34.7334 15.536C34.5807 15.8636 34.4352 16.1387 34.2982 16.3921C34.2955 16.3968 34.2929 16.4014 34.2902 16.406C34.2711 16.4413 34.2526 16.4764 34.2339 16.511C34.2198 16.5371 34.2046 16.5627 34.1905 16.5886C34.1813 16.5975 34.1744 16.6059 34.1687 16.612C34.1643 16.6168 34.1609 16.6207 34.1588 16.6231C34.1581 16.6235 34.1575 16.6239 34.1569 16.6243C34.1177 16.6687 34.0933 16.71 34.0882 16.7185C34.0794 16.7333 34.0729 16.7468 34.0693 16.7537C34.0504 16.7898 34.0295 16.8374 34.016 16.8691C33.9816 16.9499 33.9238 17.091 33.8382 17.3042C33.6298 17.8564 32.797 19.1916 32.3877 19.6169C32.3861 19.6186 32.3845 19.6202 32.3829 19.6219C32.2342 19.7616 32.0847 19.891 31.9173 20.0278C31.8281 20.1007 31.734 20.1755 31.6322 20.2544C31.6137 20.2686 31.5952 20.2828 31.5767 20.297C31.2905 20.5168 30.9531 20.7656 30.5297 21.0606C30.1462 21.3284 29.9369 21.7529 30.065 22.0365C30.1933 22.3191 30.6301 22.3452 31.0395 22.0653C31.4615 21.7761 31.7972 21.5351 32.1012 21.3068C32.1206 21.2924 32.1399 21.278 32.1592 21.2635C32.3458 21.1219 32.5252 20.9805 32.703 20.8308C32.8268 20.7264 32.9494 20.6184 33.0731 20.5029C33.1135 20.4652 33.1541 20.4266 33.1943 20.3878C33.6708 19.8926 34.6406 18.3377 34.8833 17.6947C34.9044 17.6478 34.9249 17.6008 34.9444 17.5553C35.0094 17.4214 35.0914 17.27 35.1919 17.0856C35.2121 17.0485 35.2322 17.01 35.2537 16.9706C35.3911 16.7178 35.5526 16.4173 35.721 16.0577C36.1101 15.2083 36.5655 14.0822 36.834 12.1469C36.9018 11.6373 36.9612 11.1152 37.0041 10.5766C37.1546 8.18979 37.2553 4.88595 34.8596 1.44552C34.8172 1.38721 34.7743 1.32965 34.7308 1.27273C34.6631 1.1841 34.5941 1.09705 34.5235 1.01124C34.4104 0.91461 34.2947 0.820117 34.173 0.720381C33.6231 0.273114 32.9956 -0.254731 31.8232 -1.50492C31.2477 -2.10757 30.566 -2.87482 29.5023 -3.9086C28.3729 -4.88076 27.124 -6.4799 23.5319 -7.55579C23.4213 -7.58418 23.3088 -7.61097 23.1946 -7.63598C22.2746 -7.82157 20.8477 -8.21997 19.0086 -8.55556C17.854 -8.75986 16.4892 -8.87475 14.8563 -8.77042C14.2333 -8.7288 13.569 -8.65277 12.8669 -8.51937C11.5141 -8.26258 9.95454 -7.77701 8.41393 -6.86537C8.22647 -6.75459 8.03889 -6.6372 7.85178 -6.51292C7.18031 -6.07611 6.46397 -5.61716 5.71201 -5.15269C3.4451 -3.74509 1.90665 -2.83533 0.621346 -2.05258C0.576851 -2.02566 0.532356 -1.99867 0.487877 -1.97162C0.432861 -1.93772 0.378456 -1.90417 0.324478 -1.87067C-1.56571 -0.714228 -4.0909 1.64463 -5.33922 3.97633C-6.1223 5.43159 -6.82137 6.59873 -7.64896 8.19942C-8.05254 8.99943 -8.58737 9.77568 -9.32224 11.1821C-9.52354 11.5734 -9.74477 12.0334 -9.96764 12.5712C-10.3602 13.5451 -10.8093 14.7611 -10.9881 16.5673C-11.0039 16.7401 -11.0161 16.9168 -11.0243 17.0978C-11.053 18.512 -11.1797 20.2931 -10.898 23.0708C-10.746 24.3787 -10.5573 25.7112 -10.0554 27.1469C-9.89738 27.5935 -9.70724 28.0449 -9.47047 28.5003C-9.02209 29.368 -8.38241 30.2477 -7.58949 30.9543C-7.58423 30.959 -7.57896 30.9637 -7.57368 30.9684C-7.05759 31.3999 -6.52988 31.7704 -5.99033 32.0662C-5.16248 32.5297 -3.37342 33.5035 -1.41918 34.3915C0.54892 35.3052 2.6068 36.1309 4.00864 36.9722C4.15421 37.0602 4.30207 37.1473 4.45043 37.2338C5.72697 37.9797 7.07494 38.6592 8.14184 39.4198C9.03049 40.2556 10.1693 40.938 11.4778 41.4527C11.6729 41.5294 11.8715 41.6024 12.0733 41.6716C18.5039 43.4848 24.4782 41.8108 28.8986 41.3303C28.9723 41.321 29.0461 41.3117 29.1198 41.3024C31.1831 41.0428 33.0313 40.835 34.633 40.6893C35.0821 40.6483 35.5132 40.6119 35.9209 40.5804C39.0623 40.3392 41.2664 40.0448 42.299 39.9102C42.3803 39.8993 42.4542 39.8895 42.5205 39.8804C42.5798 39.8723 42.6335 39.8654 42.6808 39.8588C43.3897 39.7596 44.0209 39.6986 44.6826 39.6279C44.7187 39.624 44.7548 39.6202 44.791 39.6163C45.4899 39.5402 46.2234 39.4501 47.0797 39.28C48.5491 38.9874 49.8922 38.694 51.1352 38.4019C51.8632 38.2306 52.5569 38.0594 53.221 37.8878C53.8552 37.7243 54.4639 37.5628 55.0404 37.4063C55.4395 37.298 55.825 37.1906 56.2013 37.0849C56.2024 37.0846 56.2035 37.0842 56.2046 37.0839C57.8525 36.6207 59.2966 36.183 60.6482 35.7201C63.1116 34.8736 64.777 34.314 66.0824 33.8889C66.4908 33.7555 66.8696 33.632 67.2253 33.515C67.9968 33.261 68.6678 33.034 69.3533 32.7667C70.638 32.2653 71.8417 31.8237 73.0331 31.3612C73.1393 31.32 73.2448 31.2782 73.3501 31.2369C74.0515 30.9612 74.7411 30.6803 75.4523 30.3647C76.0588 30.0953 76.6645 29.8071 77.2964 29.4743C77.609 29.3097 77.774 28.9585 77.6476 28.7064C77.5239 28.453 77.1602 28.3907 76.8543 28.5513C76.2257 28.8814 75.6219 29.1673 75.0116 29.4365C74.3475 29.7293 73.6958 29.9944 73.0238 30.2581C72.9189 30.2992 72.8135 30.3396 72.7074 30.3807C71.5304 30.8366 70.3123 31.2846 69.0139 31.79C68.3589 32.0448 67.7266 32.2585 66.9767 32.5048C66.6176 32.6228 66.2329 32.7474 65.804 32.8873C64.4872 33.3151 62.8091 33.8768 60.3375 34.7247C59.0111 35.178 57.5937 35.608 55.9606 36.0669C55.584 36.1727 55.1991 36.2789 54.7977 36.3878C54.2112 36.5469 53.5898 36.7117 52.9423 36.8786C52.2875 37.0477 51.603 37.2166 50.8843 37.3857C49.6624 37.673 48.3414 37.9619 46.8969 38.25C46.0974 38.4092 45.4103 38.4947 44.7224 38.5701C44.6838 38.5745 44.6452 38.5788 44.6066 38.5831C43.9583 38.6528 43.2996 38.7164 42.5595 38.8203C42.4605 38.8342 42.3345 38.8521 42.1823 38.8725C41.1595 39.0063 38.9696 39.2996 35.8536 39.5396C35.4423 39.5714 35.0079 39.608 34.556 39.6492C32.9382 39.7963 31.077 40.0057 29.0057 40.2665C28.9856 40.2692 28.9654 40.2719 28.9452 40.2746C24.5852 40.8289 21.9906 41.1205 19.9914 40.9686C18.4077 40.8503 17.1996 40.8267 16.1685 40.7997C15.9701 40.7945 15.7835 40.7883 15.6064 40.7821C14.828 40.7547 14.1889 40.7145 13.5383 40.5946C13.0892 40.5124 12.6616 40.4141 12.2486 40.2963C12.0499 40.2347 11.8572 40.1696 11.6693 40.1007C10.6867 39.7395 9.83576 39.2808 8.93187 38.6448C7.75716 37.8198 6.30943 37.0911 5.08329 36.3793C5.08145 36.3783 5.07961 36.3772 5.07777 36.3762C4.93233 36.2921 4.78984 36.2087 4.65128 36.1256ZM24.7707 23.5945C24.4023 23.7576 24.1948 24.1082 24.307 24.3926C24.4198 24.6766 24.8246 24.7814 25.212 24.6103C26.1318 24.2039 27.0584 23.7334 27.9763 23.1797C28.3629 22.9468 28.5379 22.5339 28.37 22.2784C28.2016 22.0223 27.7723 22.0083 27.4076 22.228C26.5356 22.7547 25.6518 23.2045 24.7707 23.5945ZM7.49052 31.5954C7.23282 31.4574 6.90723 31.5446 6.75749 31.7923C6.60848 32.0398 6.6989 32.359 6.96442 32.5019C7.10464 32.5772 7.33425 32.7055 7.64765 32.8728C8.55579 33.3567 10.1814 34.1783 12.4049 34.9051C12.572 34.9597 12.7421 35.0136 12.9153 35.0667C16.2164 36.047 20.6366 36.3075 25.0461 36.1879C25.7042 36.1684 26.2917 36.153 26.8509 36.1382C28.9806 36.0855 30.7856 36.5024 34.3109 36.3419C34.7296 36.3239 35.1738 36.2987 35.6418 36.266C35.6576 36.2649 35.6734 36.2637 35.6893 36.2626C40.5446 35.9086 45.3183 35.0642 49.9961 33.7881C50.6441 33.6104 51.2901 33.4234 51.9338 33.2268C59.1497 30.9688 66.0709 28.2282 72.8847 24.9577C73.7177 24.5491 74.5477 24.1256 75.3727 23.6753C79.9981 21.3377 85.3734 19.5682 90.5827 17.9584C92.0555 17.5133 93.538 17.0577 95.0103 16.6052C95.7448 16.3797 96.4744 16.1554 97.2107 15.9322C97.5771 15.8213 97.9497 15.7087 98.2927 15.6104C98.3363 15.5979 98.374 15.5874 98.4043 15.5792C98.4399 15.5693 98.4943 15.5552 98.4738 15.5613C98.4712 15.562 98.4675 15.563 98.4621 15.5643C98.434 15.5687 98.5339 15.5554 98.2896 15.5966C98.2095 15.6025 98.1474 15.6321 97.7928 15.6068C97.6051 15.5645 97.3099 15.6264 96.6376 15.1271C96.3139 14.8774 95.9366 14.3245 95.8764 13.7454C95.806 13.1673 95.9718 12.7388 96.0997 12.4898C96.3775 11.995 96.5528 11.9062 96.6633 11.8034C96.7754 11.7148 96.8402 11.676 96.8912 11.6445C97.0043 11.5782 96.9956 11.5863 97.0081 11.579C97.0475 11.5586 97.0718 11.5472 97.0905 11.5385C97.1599 11.5069 97.1576 11.5093 97.1492 11.5119C97.1146 11.5245 97.0992 11.5295 97.0595 11.5433C96.8586 11.6132 96.752 11.6475 96.5264 11.723C96.4839 11.737 96.4377 11.7518 96.3884 11.7675C94.297 12.3998 91.9214 12.9139 89.6602 13.4277C89.3423 13.4987 89.0111 13.5746 88.6689 13.6531C88.4944 13.693 88.3274 13.7314 88.1567 13.7694C88.0799 13.7866 87.991 13.8058 87.9292 13.8187C87.8974 13.8255 87.8681 13.8309 87.8813 13.8299C87.9083 13.8296 87.8513 13.8247 88.1031 13.8171C88.1368 13.817 88.1775 13.8175 88.2312 13.8204C88.2581 13.8218 88.2884 13.824 88.3234 13.8273C88.3409 13.829 88.3596 13.831 88.3797 13.8335C88.4064 13.8378 88.3903 13.8314 88.5477 13.8606C88.6776 13.8888 88.8509 13.9243 89.1296 14.0632C89.393 14.2014 89.8506 14.483 90.1584 15.1377C90.478 15.7934 90.3628 16.603 90.1728 16.9882C89.985 17.4 89.8007 17.5763 89.6751 17.7042C89.6442 17.7342 89.6084 17.7663 89.5895 17.7828C89.583 17.7884 89.5766 17.7939 89.5703 17.7992C89.5578 17.8099 89.5457 17.82 89.534 17.8295C89.5107 17.8485 89.489 17.8654 89.4688 17.8807C89.4282 17.9113 89.3933 17.9356 89.3623 17.9563C89.1251 18.1078 89.0725 18.1157 89.0241 18.1394C89.1465 18.084 89.2782 18.0256 89.4072 17.9689C93.3845 16.1915 99.2612 14.7093 100.67 14.7019C100.938 14.681 101.149 14.454 101.149 14.1799V14.1799C101.149 14.1782 101.149 14.1765 101.149 14.1747C101.15 13.8987 100.909 13.6809 100.613 13.7033C99.0632 13.722 93.1324 15.2194 89.0331 17.0413C88.899 17.0999 88.7619 17.1607 88.634 17.2187C88.6528 17.2093 88.6773 17.2063 88.7982 17.1305C88.8298 17.1097 88.8692 17.0829 88.9237 17.0365C88.9402 16.986 89.2783 16.8735 89.3625 16.1303C89.3918 15.7572 89.171 15.3312 88.9639 15.1568C88.7562 14.9681 88.6008 14.9167 88.4964 14.8792C88.3928 14.8453 88.3159 14.834 88.2785 14.8286C88.2668 14.827 88.2559 14.8256 88.2457 14.8245C88.2254 14.8222 88.2079 14.8208 88.1924 14.8197C88.1615 14.8176 88.1384 14.8171 88.1195 14.817C87.9817 14.8199 88.0231 14.8219 88.0169 14.8204C88.031 14.8175 88.064 14.8111 88.1026 14.8032C88.1768 14.7879 88.2693 14.7677 88.3471 14.7501C88.5233 14.7105 88.6899 14.6716 88.8614 14.6316C89.2014 14.5521 89.5287 14.4751 89.843 14.4028C92.1376 13.8645 94.5005 13.3266 96.6847 12.6662C96.7372 12.6495 96.7869 12.6334 96.8334 12.6181C97.0618 12.5417 97.1619 12.5097 97.3777 12.4347C97.4216 12.4194 97.4376 12.4142 97.4844 12.3971C97.505 12.3896 97.5172 12.3843 97.4944 12.3946C97.4882 12.3975 97.4793 12.4016 97.4645 12.4089C97.4571 12.4126 97.4482 12.4171 97.4367 12.4232C97.4319 12.4267 97.3843 12.4467 97.2864 12.5181C97.2338 12.5612 97.1598 12.6037 97.0244 12.7869C96.9598 12.8819 96.8678 13.024 96.8224 13.2784C96.7715 13.5258 96.837 13.9089 97.0171 14.1537C97.4031 14.6443 97.6867 14.6148 97.8077 14.6546C97.9411 14.6748 98.001 14.67 98.0488 14.669C98.1388 14.6643 98.1677 14.6575 98.1926 14.6537C98.238 14.6455 98.2405 14.6439 98.2402 14.6441C98.2425 14.6435 98.2436 14.6432 98.2438 14.643C98.2454 14.6418 98.1939 14.6551 98.1464 14.6684C98.1138 14.6772 98.0748 14.688 98.0303 14.7007C97.6757 14.8021 97.311 14.9119 96.9408 15.0235C96.2044 15.2458 95.4844 15.4657 94.7503 15.6894C93.2875 16.1355 91.8121 16.5843 90.345 17.0223C85.0731 18.6375 79.7124 20.2487 74.7734 22.5556C73.9593 22.9701 73.1346 23.3606 72.305 23.7369C65.5121 26.7503 58.5138 29.2046 51.3823 31.2297C50.7529 31.4043 50.1212 31.5701 49.4875 31.728C44.9033 32.8632 40.2267 33.6171 35.5135 33.9612C35.5066 33.9617 35.4997 33.9622 35.4927 33.9627C35.0153 33.9969 34.5652 34.0377 34.1435 34.0822C30.6261 34.4628 28.9836 35.0409 26.8596 35.0939C26.299 35.1089 25.7102 35.1237 25.0477 35.1435C20.6086 35.2683 16.1513 34.9807 13.0498 34.0114C12.8816 33.9585 12.7163 33.9049 12.5542 33.8507C10.5336 33.1749 9.04336 32.4265 8.18263 31.9698C7.86759 31.8024 7.63486 31.6727 7.49052 31.5954ZM-3.67033 25.3904C-4.34559 23.7738 -4.19843 20.6415 -4.07227 17.5048C-4.07034 17.4312 -4.06669 17.3562 -4.06127 17.2799C-3.99171 16.2867 -3.63097 15.1998 -3.16582 14.1947C-2.35153 12.4439 -1.24535 10.8838 -0.30761 9.70275C1.16693 7.87239 2.05556 6.64075 2.9547 5.41436C2.96449 5.40131 2.97429 5.38826 2.98409 5.37521C3.89332 4.15953 4.84179 2.94639 6.72723 1.35717C7.88234 0.388385 9.39829 -0.707348 11.0955 -1.76225C11.1906 -1.82111 11.287 -1.87685 11.3846 -1.92953C12.3762 -2.47009 13.5501 -2.693 14.7276 -2.68044C14.7302 -2.68056 14.7328 -2.68068 14.7354 -2.68079C17.2097 -2.65065 19.4846 -1.4721 21.6469 -0.760284C21.6763 -0.749075 21.7057 -0.737428 21.7349 -0.725354C22.1804 -0.541162 22.6008 -0.257524 23.0087 0.0336611C24.939 1.49119 26.3855 3.67599 27.6872 5.37855C27.706 5.40249 27.7243 5.42662 27.7422 5.45095C28.7195 6.78884 28.5852 8.76275 28.452 10.2243C28.294 11.7297 28.0744 12.9524 27.9535 13.8827C27.9016 14.2662 27.8325 14.649 27.7511 15.03C27.7423 15.0532 27.7074 15.1093 27.6902 15.1271C27.6109 15.2383 27.5287 15.3473 27.4431 15.4548C25.3374 18.094 21.7844 19.1889 18.6122 20.1317C18.5591 20.1468 18.5124 20.1605 18.4661 20.1742C17.2642 20.531 16.0794 20.9372 14.961 21.4718C14.482 21.8577 15.5331 22.5182 16.4877 22.088C16.5224 22.0743 16.5575 22.0606 16.592 22.047C16.9232 21.9179 17.214 21.808 17.6291 21.6807C18.0607 21.5676 18.4153 21.4842 18.7337 21.4123C18.7821 21.4014 18.8299 21.3907 18.8774 21.38C18.8809 21.3793 18.8915 21.3769 18.895 21.3761C18.9757 21.3573 19.0544 21.3389 19.1317 21.3204C20.0169 21.1829 25.8176 19.3907 28.2064 16.2349C28.3043 16.1178 28.3969 16.0016 28.4846 15.8864C28.5681 15.7997 28.738 15.5273 28.7805 15.4147C28.9047 14.8926 28.9993 14.4237 29.0514 14.0402C29.1684 13.142 29.5225 12.0062 29.8904 10.4753C30.176 8.97902 30.8629 6.86305 29.5568 4.3661C29.5314 4.32206 29.5052 4.27816 29.4782 4.23443C28.2838 2.38718 27.0641 0.0685329 24.4457 -1.95029C23.8832 -2.34951 23.1672 -2.72522 22.3052 -2.89308C22.2484 -2.90401 22.1912 -2.91393 22.1337 -2.9228C20.0399 -3.2086 17.4485 -3.72575 14.7618 -3.75483C14.7518 -3.75484 14.7418 -3.75485 14.7318 -3.75484C13.4173 -3.76372 12.0275 -3.50456 10.8356 -2.84164C10.7208 -2.77844 10.6073 -2.7116 10.4954 -2.64111C8.78119 -1.57135 7.24344 -0.457578 6.06255 0.533528C4.07953 2.20602 3.07323 3.49641 2.13691 4.7501C2.12793 4.76243 2.11896 4.77476 2.11 4.78709C1.20399 6.02415 0.342812 7.22022 -1.11724 9.03262C-2.10316 10.2759 -3.26112 11.9008 -4.13264 13.7848C-4.61807 14.8453 -5.01436 16.01 -5.10341 17.1727C-5.11028 17.2639 -5.11511 17.3542 -5.11789 17.4436C-5.22346 20.556 -5.44834 23.7116 -4.64487 25.7612C-4.54183 26.0264 -4.22579 26.1179 -3.97297 25.9808C-3.7198 25.8433 -3.59268 25.5907 -3.67033 25.3904ZM2.30858 22.8543C2.66371 23.3892 2.58472 22.6877 2.72917 21.7274C2.84203 20.7419 3.01661 19.4384 3.16277 17.9283C3.16452 17.9641 3.16557 17.9958 3.16631 18.0234C3.13929 18.4804 3.3171 17.732 3.82236 16.9068C4.31285 16.0502 5.02697 15.0019 5.82925 13.9373C7.44995 11.7884 9.41969 9.51831 11.4609 7.3184C12.501 6.44881 13.8326 5.38626 15.2751 4.35904C15.2489 4.37448 15.2222 4.38917 15.1957 4.40272C14.904 4.55705 14.7427 4.51906 15.0814 4.51093C15.0915 4.51044 15.1019 4.51 15.1127 4.50962C15.8911 4.47443 17.6762 4.93503 20.2282 5.54247C20.1822 5.53173 20.1376 5.52041 20.0947 5.50869C19.4078 5.30901 19.2324 5.11676 19.2308 5.1211C19.5035 5.21093 21.1324 7.29277 22.1932 8.88837C22.1757 8.85853 22.1589 8.82863 22.1426 8.79877C21.9168 8.38728 21.8292 8.00409 21.8147 7.80626C21.7992 7.60188 21.8351 7.55792 21.857 7.61253C21.908 7.72792 21.903 8.17918 21.8494 8.65402C21.7412 9.63191 21.5208 10.7257 21.4262 11.5812C21.3831 11.9569 21.3343 12.3011 21.2845 12.6141L22.6998 10.3575C22.6778 10.4201 22.6546 10.4793 22.6302 10.5356C22.3348 11.1836 22.022 11.3948 21.6355 11.6474C21.6216 11.6566 21.6077 11.6659 21.5937 11.6751C21.5923 11.6749 21.5909 11.6747 21.5895 11.6745C21.5641 11.6734 21.5448 11.6757 21.5351 11.6775C21.5155 11.681 21.5011 11.6866 21.4957 11.6886C21.4833 11.6934 21.4737 11.699 21.4702 11.7008C21.456 11.7085 21.4403 11.7181 21.4303 11.7247C21.3392 11.7865 21.047 11.9914 20.7953 12.1655C20.5391 12.3441 20.3522 12.4928 20.1475 12.6508C20.1268 12.6669 20.106 12.6829 20.085 12.699C19.8975 12.8409 19.6867 12.9945 19.3528 13.1864C19.1501 13.3029 19.0737 13.6211 19.1939 13.9005C19.3139 14.1796 19.5956 14.3092 19.8125 14.1865C20.1854 13.9747 20.4246 13.8027 20.6263 13.6523C20.6486 13.6355 20.6708 13.6186 20.6929 13.6018C20.9031 13.442 21.0819 13.3042 21.3314 13.1332C21.7025 12.9087 21.9647 12.753 22.1963 12.6075C22.6391 12.3211 23.0205 12.0655 23.4161 11.3388C23.4497 11.2748 23.4824 11.2073 23.5142 11.1359L22.3398 13.0084C22.402 12.6354 22.463 12.2193 22.5151 11.7583C22.6035 10.943 22.8182 9.88169 22.9382 8.85905C22.9967 8.36077 23.0145 7.86561 22.9685 7.63963C22.9483 7.52916 22.9119 7.49781 22.9087 7.59968C22.9048 7.69625 22.9514 7.9464 23.0988 8.2271C23.1094 8.24758 23.1205 8.26811 23.132 8.28862C22.0521 6.68324 20.4637 4.57366 19.8969 4.23715C19.8251 4.18039 19.8877 4.29482 20.3755 4.44156C20.4058 4.45006 20.4375 4.45832 20.4705 4.46621C17.9809 3.88277 16.0977 3.38817 15.0759 3.43784C15.0606 3.43808 15.0458 3.43841 15.0313 3.43882C14.5683 3.45734 14.5364 3.53611 14.6481 3.49277C14.6573 3.48972 14.667 3.4861 14.6764 3.48223C13.2039 4.53245 11.8522 5.61297 10.7957 6.49697C8.43728 8.47212 6.16815 10.5473 4.29115 12.6767C2.4359 14.6642 0.932007 17.4525 1.0759 17.8083C1.07696 17.8111 1.07848 17.8105 1.0802 17.8064C1.01379 19.2853 0.956169 20.6218 1.01265 21.6981C1.04132 22.745 1.33117 23.6206 1.35113 23.2655C1.28631 23.1373 1.07163 22.7456 0.684662 22.3897C0.682716 22.3879 0.680771 22.3861 0.678818 22.3843C1.17176 22.8828 1.71666 23.3371 2.27972 23.7485C4.88661 25.6169 7.55386 26.6169 10.0247 27.9076C10.478 28.1375 11.5923 28.5229 13.2586 28.8759C13.3998 28.9057 13.5448 28.9351 13.6933 28.964C13.8549 28.9995 14.0467 29.0346 14.2507 29.0667C14.8304 29.1579 15.5585 29.2284 16.387 29.2747C18.4309 29.3906 21.0855 29.3558 24.1508 29.2686C24.7925 29.2507 25.3734 29.2358 25.9276 29.2212C28.1098 29.1677 29.8641 29.0934 33.7511 28.7866C34.104 28.7598 34.4735 28.7319 34.8648 28.703C34.9593 28.696 35.0547 28.689 35.1511 28.682C38.7544 28.4378 43.9601 27.5585 48.1606 26.3533C48.7604 26.1844 49.3402 26.0117 49.8934 25.8383C51.1304 25.4516 52.2698 25.0667 53.228 24.729C55.5107 23.9209 56.7809 23.3877 57.6738 23.0044C57.9227 22.897 58.14 22.8003 58.3399 22.7118C58.8619 22.4803 59.266 22.2995 59.8029 22.0819C63.3401 20.6305 65.9863 19.7176 69.6991 18.2493C70.0233 18.1188 70.3491 17.9863 70.6887 17.8444C70.947 17.7369 71.0704 17.4344 70.9598 17.1748C70.8515 16.914 70.5519 16.7928 70.3014 16.8959C69.9459 17.0432 69.5998 17.1833 69.2578 17.32C65.6224 18.7494 62.9618 19.6679 59.4233 21.1153C58.8663 21.3405 58.4366 21.5329 57.9088 21.7663C57.7131 21.8528 57.5042 21.9449 57.2698 22.0459C56.3976 22.4195 55.1483 22.943 52.8954 23.7395C51.9511 24.072 50.8297 24.4505 49.6151 24.8304C49.0712 25.0011 48.5006 25.1713 47.91 25.338C43.7732 26.5275 38.6244 27.4 35.0837 27.6402C34.9914 27.6469 34.9001 27.6536 34.8096 27.6603C34.4098 27.6898 34.033 27.7184 33.6739 27.7456C29.8235 28.0495 28.1045 28.1232 25.9355 28.177C25.3812 28.1916 24.7979 28.206 24.1522 28.2243C21.0922 28.3123 18.4494 28.3463 16.4522 28.2336C15.6422 28.1887 14.9442 28.1204 14.3962 28.0343C14.1786 28.0002 13.9847 27.9634 13.8255 27.9268C13.6813 27.8983 13.5411 27.8695 13.4052 27.8405C11.8262 27.5004 10.8411 27.1546 10.4691 26.9668C7.99043 25.6749 5.30692 24.6528 2.85261 22.8749C2.33385 22.4931 1.83981 22.0777 1.40158 21.6325C1.40414 21.6349 1.40671 21.6373 1.40926 21.6397C1.90361 22.0991 2.19691 22.6146 2.30858 22.8543ZM87.9748 11.0232C87.6718 11.107 87.4757 11.3867 87.5414 11.6454C87.6071 11.9041 87.9094 12.0435 88.2118 11.9587C89.8153 11.5094 90.9765 11.1964 91.8772 10.9547C93.5601 10.5032 94.3532 10.2931 95.5729 9.90303C95.7615 9.84304 95.8842 9.80401 96.0924 9.73886C96.1841 9.7102 96.269 9.68382 96.3477 9.65959C96.456 9.62636 96.5571 9.59577 96.6489 9.56879C96.684 9.55845 96.7932 9.52667 96.8857 9.50234C96.9113 9.49557 96.9392 9.48836 96.9725 9.48011C96.9892 9.47598 97.0073 9.47158 97.0277 9.46679C97.0524 9.46127 96.9979 9.47284 97.1259 9.44485C97.2488 9.4262 97.2921 9.38651 97.8662 9.35457C98.0277 9.35187 98.2312 9.34233 98.6343 9.40158C99.027 9.50437 99.7252 9.47114 100.918 10.562C101.489 11.1054 102.033 12.1167 102.105 13.0822C102.194 14.0508 101.94 14.7924 101.719 15.2558C101.245 16.1784 100.898 16.3981 100.681 16.6087C100.246 16.967 100.103 17.0186 99.9733 17.0969C99.8734 17.1507 99.9083 17.1316 99.878 17.1474C99.8073 17.1837 99.7575 17.2073 99.7157 17.2266C99.6335 17.2646 99.5832 17.2856 99.5395 17.3038C99.4546 17.3389 99.3996 17.3598 99.3429 17.3813C99.3036 17.3962 99.2892 17.4016 99.2623 17.4116C99.2132 17.4298 99.1629 17.4481 99.1089 17.4675C98.886 17.5475 98.7766 17.5857 98.5628 17.6601C98.4941 17.6839 98.4248 17.7074 98.3546 17.7309C95.7286 18.5663 93.6181 19.2005 91.48 19.7976C91.0517 19.9152 90.6289 20.0276 90.2006 20.1344C89.9801 20.1891 89.7698 20.24 89.531 20.2934C89.4163 20.319 89.2876 20.3469 89.1342 20.3766C89.0355 20.3948 88.9926 20.4048 88.7971 20.4335C88.6758 20.4446 88.7232 20.4637 88.1635 20.4831C88.0913 20.4839 88.0067 20.4834 87.898 20.4782C87.8436 20.4756 87.7831 20.4717 87.7137 20.4655C87.679 20.4624 87.6421 20.4587 87.6025 20.4542C87.5827 20.4519 87.5623 20.4494 87.541 20.4466C87.5055 20.4416 87.5492 20.4491 87.4 20.4261C87.1765 20.387 86.8869 20.3371 86.4202 20.1485C85.9716 19.9491 85.2292 19.6237 84.4861 18.5936C83.708 17.5864 83.5248 15.7975 83.8793 14.8264C84.1991 13.8129 84.624 13.3655 84.8967 13.0586C85.024 12.9207 85.2109 12.7554 85.2208 12.7479C85.2464 12.7257 85.2711 12.7048 85.295 12.685C85.3429 12.6454 85.3873 12.6102 85.429 12.5783C85.5123 12.5146 85.5845 12.4638 85.6488 12.4205C86.1419 12.1022 86.2783 12.0709 86.4243 12.0018C86.5876 11.9309 86.7567 11.86 86.9171 11.7947C90.3651 10.4244 93.0348 9.78753 94.6914 9.36391C95.0232 9.28143 95.2434 8.99965 95.1844 8.7297C95.1235 8.46054 94.8002 8.30652 94.4616 8.39046C92.7753 8.82202 90.0862 9.46021 86.543 10.8673C86.3778 10.9345 86.2033 11.0078 86.0344 11.0813C85.8637 11.1615 85.698 11.2035 85.1265 11.5673C84.9722 11.6716 84.8127 11.7777 84.5282 12.0256C84.2594 12.2723 83.8901 12.5991 83.441 13.3446C83.0172 14.0498 82.4406 15.4922 82.8226 17.2339C83.1933 18.9812 84.3984 20.1331 85.1388 20.5972C85.9193 21.0951 86.4274 21.2215 86.797 21.3219C86.9821 21.3678 87.1338 21.396 87.2647 21.4167C87.2969 21.4218 87.3306 21.4268 87.3573 21.4305C87.364 21.4314 87.3707 21.4324 87.3773 21.4332C87.3904 21.435 87.4033 21.4367 87.4161 21.4384C87.4669 21.4449 87.5142 21.4503 87.5587 21.4548C87.6476 21.4638 87.725 21.4696 87.7945 21.4737C87.9332 21.4816 88.0408 21.4831 88.1323 21.4829C88.8328 21.4635 88.7828 21.4368 88.9224 21.4251C89.147 21.3925 89.1981 21.3807 89.3031 21.3614C89.4715 21.329 89.6037 21.3 89.7198 21.2739C89.9661 21.2185 90.1726 21.1678 90.3953 21.1118C90.8214 21.004 91.2412 20.8902 91.6614 20.7721C93.8306 20.1528 95.9235 19.4956 98.6507 18.629C98.7242 18.6045 98.797 18.5798 98.8697 18.5546C99.0841 18.4802 99.1956 18.4412 99.422 18.3602C99.4779 18.3401 99.5306 18.3209 99.5829 18.3016C99.6091 18.2919 99.6352 18.2821 99.6621 18.272C99.7217 18.2495 99.7834 18.2261 99.8752 18.1887C99.9223 18.1693 99.9767 18.1468 100.061 18.1088C100.104 18.0895 100.155 18.0663 100.223 18.0327C100.258 18.0159 100.297 17.9963 100.343 17.9719C100.367 17.9591 100.325 17.9818 100.417 17.9324C100.49 17.8926 100.579 17.8431 100.704 17.7643C100.83 17.6829 100.99 17.5815 101.248 17.3679C101.503 17.1311 101.891 16.8795 102.461 15.8838C102.729 15.3797 103.063 14.5975 103.07 13.4747C103.097 12.363 102.589 11.0198 101.893 10.2283C100.428 8.63212 99.4184 8.63797 98.9074 8.48831C97.8733 8.33375 97.6863 8.42917 97.4472 8.43634C97.0524 8.48377 96.9659 8.51344 96.8594 8.53474C96.7957 8.54926 96.7977 8.54904 96.7707 8.55549C96.7285 8.56574 96.6945 8.57444 96.6638 8.58244C96.5501 8.61209 96.4443 8.64286 96.3931 8.65779C96.2958 8.68626 96.1954 8.71655 96.0823 8.75114C95.9988 8.77676 95.9161 8.80235 95.8237 8.83116C95.617 8.89562 95.4882 8.9364 95.302 8.99543C94.1049 9.37674 93.3585 9.57396 91.71 10.012C90.8034 10.2533 89.6262 10.5662 87.9748 11.0232Z" fill="black"/>
</svg>
