<svg width="50" height="44" viewBox="0 0 50 44" fill="none" xmlns="http://www.w3.org/2000/svg">
<g clip-path="url(#clip0_48_632)">
<path d="M26.2242 37.0967C25.4703 36.6773 24.525 36.6773 23.7712 37.0969L12.2092 43.5318C10.4172 44.5292 8.20175 43.0535 8.67794 41.1796L11.7432 29.1172C11.9423 28.3336 11.6536 27.5131 10.9927 26.9846L0.815658 18.8463C-0.76076 17.5857 0.0866973 15.2047 2.16959 15.0422L15.5815 13.9964C16.4549 13.9283 17.2157 13.4225 17.5589 12.6819L22.8224 1.3223C23.6393 -0.440769 26.3607 -0.440767 27.1776 1.3223L32.4411 12.6819C32.7843 13.4225 33.5451 13.9283 34.4185 13.9964L47.8304 15.0422C49.9133 15.2047 50.7608 17.5857 49.1843 18.8463L39.0073 26.9846C38.3464 27.5131 38.0577 28.3336 38.2568 29.1172L41.3223 41.1804C41.7984 43.0542 39.5833 44.5299 37.7912 43.5328L26.2242 37.0967Z" fill="#FFC500"/>
</g>
<defs>
<clipPath id="clip0_48_632">
<rect width="50" height="44" fill="white"/>
</clipPath>
</defs>
</svg>
